<svg width="154" height="154" viewBox="0 0 154 154" fill="none" xmlns="http://www.w3.org/2000/svg">
<g clip-path="url(#clip0_36_294)">
<path d="M77.2454 153.613L14.9515 141.35L1.06934 30.9353H153.608L139.711 141.333L77.2454 153.613Z" fill="#264DE4"/>
<path d="M127.814 134.303L139.689 39.9629H77.3386V144.226L127.814 134.303Z" fill="#2965F1"/>
<path d="M32.8937 80.9144L34.6049 94.4563H77.3386V80.9144H32.8937ZM29.4543 53.5054L31.1901 67.0473H77.3386V53.5054H29.4543ZM77.3386 116.084L77.2549 116.1L55.9876 112.028L54.6279 101.227H35.4582L38.1333 122.49L77.2507 130.19L77.3386 130.174V116.084Z" fill="#EBEBEB"/>
<path d="M36.9685 0.929199H60.0966V7.78813H46.6407V14.6471H60.0978V21.5056H36.9685V0.929199ZM64.7228 0.929199H87.8514V6.89345H74.3949V8.08622H87.8514V21.8041H64.7234V15.5409H78.1798V14.3481H64.7222L64.7228 0.929199ZM92.4776 0.929199H115.606V6.89345H102.15V8.08622H115.606V21.8041H92.4776V15.5409H105.934V14.3481H92.4782L92.4776 0.929199Z" fill="black"/>
<path d="M121.661 80.9144L125.109 53.5054H77.2727V67.0473H104.181L102.443 80.9144H77.2727V94.4563H100.788L98.5705 112.019L77.2721 116.096V130.184L116.421 122.49L116.708 120.202L121.196 84.5508L121.661 80.9144Z" fill="white"/>
</g>
<defs>
<clipPath id="clip0_36_294">
<rect width="153.071" height="153.071" fill="white" transform="translate(0.803223 0.929199)"/>
</clipPath>
</defs>
</svg>
