<svg width="74" height="74" viewBox="0 0 74 74" fill="none" xmlns="http://www.w3.org/2000/svg">
<path d="M61.4534 26.248C61.3083 25.9163 61.1054 25.613 60.8542 25.3522L42.5118 7.00986C42.2511 6.75866 41.9478 6.55578 41.6161 6.41067C41.5244 6.36787 41.4266 6.34342 41.3288 6.30979C41.0729 6.22306 40.8066 6.17063 40.537 6.15388C40.4728 6.14776 40.4147 6.11414 40.3505 6.11414H18.951C15.5791 6.11414 12.8369 8.85632 12.8369 12.2283V61.1413C12.8369 64.5133 15.5791 67.2554 18.951 67.2554H55.6358C59.0078 67.2554 61.75 64.5133 61.75 61.1413V27.5136C61.75 27.4494 61.7163 27.3913 61.7102 27.3241C61.6935 27.0544 61.641 26.7882 61.5543 26.5323C61.5258 26.4344 61.4921 26.3397 61.4534 26.248ZM51.3131 24.4565H43.4076V16.551L51.3131 24.4565ZM18.951 61.1413V12.2283H37.2934V27.5136C37.2934 28.3244 37.6155 29.102 38.1888 29.6753C38.7621 30.2486 39.5397 30.5707 40.3505 30.5707H55.6358L55.6419 61.1413H18.951Z" fill="black"/>
<path d="M25.0652 36.6848H49.5217V42.7989H25.0652V36.6848ZM25.0652 48.9131H49.5217V55.0272H25.0652V48.9131ZM25.0652 24.4565H31.1793V30.5707H25.0652V24.4565Z" fill="black"/>
</svg>
