<svg width="73" height="95" viewBox="0 0 73 95" fill="none" xmlns="http://www.w3.org/2000/svg">
<path d="M60.5384 26.1158C60.394 25.7858 60.1921 25.484 59.9422 25.2246L41.6922 6.97458C41.4328 6.72465 41.131 6.5228 40.801 6.37842C40.7097 6.33583 40.6124 6.3115 40.5151 6.27804C40.2605 6.19175 39.9956 6.13959 39.7273 6.12292C39.6634 6.11683 39.6056 6.08337 39.5417 6.08337H18.2501C14.8951 6.08337 12.1667 8.81175 12.1667 12.1667V60.8334C12.1667 64.1883 14.8951 66.9167 18.2501 66.9167H54.7501C58.105 66.9167 60.8334 64.1883 60.8334 60.8334V27.375C60.8334 27.3112 60.8 27.2534 60.7939 27.1865C60.7772 26.9182 60.725 26.6533 60.6387 26.3987C60.6104 26.3013 60.5769 26.207 60.5384 26.1158ZM50.4492 24.3334H42.5834V16.4676L50.4492 24.3334ZM18.2501 60.8334V12.1667H36.5001V27.375C36.5001 28.1817 36.8205 28.9554 37.391 29.5258C37.9614 30.0962 38.735 30.4167 39.5417 30.4167H54.7501L54.7562 60.8334H18.2501Z" fill="black"/>
<path d="M24.3334 36.5H48.6667V42.5834H24.3334V36.5ZM24.3334 48.6667H48.6667V54.75H24.3334V48.6667ZM24.3334 24.3334H30.4167V30.4167H24.3334V24.3334Z" fill="black"/>
<path d="M30.1174 88.22C28.7174 88.22 27.5508 87.9333 26.6174 87.36C25.6841 86.7733 24.9841 85.9733 24.5174 84.96C24.0508 83.9333 23.8174 82.7733 23.8174 81.48C23.8174 80 24.0974 78.7533 24.6574 77.74C25.2308 76.7133 26.0174 75.94 27.0174 75.42C28.0174 74.8867 29.1641 74.62 30.4574 74.62C31.1641 74.62 31.7241 74.68 32.1374 74.8C32.5641 74.9067 32.8974 75.02 33.1374 75.14C33.3908 75.26 33.6041 75.32 33.7774 75.32C33.9641 75.32 34.0974 75.2533 34.1774 75.12C34.2574 74.9733 34.3441 74.8067 34.4374 74.62H35.1174V79.3H34.3574C34.1308 78.02 33.6774 77.0733 32.9974 76.46C32.3308 75.8467 31.4841 75.54 30.4574 75.54C29.0841 75.54 28.0374 76.04 27.3174 77.04C26.5974 78.0267 26.2374 79.4067 26.2374 81.18C26.2374 82.4867 26.4241 83.5533 26.7974 84.38C27.1708 85.1933 27.6974 85.7933 28.3774 86.18C29.0708 86.5667 29.8841 86.76 30.8174 86.76C31.7641 86.76 32.5708 86.5867 33.2374 86.24C33.9041 85.8933 34.5241 85.4133 35.0974 84.8L35.6174 85.26C35.2308 85.82 34.7908 86.3267 34.2974 86.78C33.8041 87.22 33.2174 87.5733 32.5374 87.84C31.8574 88.0933 31.0508 88.22 30.1174 88.22ZM43.8535 88.1H42.8135L38.1735 77.34C37.9735 76.9 37.7802 76.5533 37.5935 76.3C37.4202 76.0333 37.2135 75.84 36.9735 75.72C36.7468 75.6 36.4402 75.54 36.0535 75.54V74.86H41.8335V75.54C41.6335 75.54 41.4268 75.5533 41.2135 75.58C41.0135 75.6067 40.8402 75.6733 40.6935 75.78C40.5468 75.8867 40.4735 76.0667 40.4735 76.32C40.4735 76.6 40.5802 76.9933 40.7935 77.5L43.1535 83.16L43.9335 85.22H44.0535L44.7535 83.22L47.1535 77.16C47.2068 77.04 47.2535 76.9 47.2935 76.74C47.3468 76.58 47.3735 76.4067 47.3735 76.22C47.3735 75.9533 47.2668 75.7733 47.0535 75.68C46.8402 75.5867 46.5068 75.54 46.0535 75.54V74.86H50.3535V75.54C50.0735 75.54 49.8335 75.5733 49.6335 75.64C49.4468 75.6933 49.2735 75.8133 49.1135 76C48.9535 76.1867 48.7802 76.4667 48.5935 76.84C48.4068 77.2133 48.1868 77.7 47.9335 78.3L43.8535 88.1Z" fill="black"/>
</svg>
