<svg width="74" height="96" viewBox="0 0 74 96" fill="none" xmlns="http://www.w3.org/2000/svg">
<path d="M37.3044 6.71375C33.31 6.71375 29.3547 7.5005 25.6644 9.02908C21.9741 10.5577 18.621 12.7981 15.7965 15.6226C10.0923 21.3268 6.8877 29.0634 6.8877 37.1304C6.8877 50.5746 15.6173 61.9808 27.6927 66.0262C29.2135 66.2696 29.7002 65.3267 29.7002 64.5054V59.365C21.2748 61.19 19.4802 55.2892 19.4802 55.2892C18.081 51.7608 16.1039 50.8179 16.1039 50.8179C13.336 48.9321 16.3169 48.9929 16.3169 48.9929C19.3585 49.2058 20.9706 52.1258 20.9706 52.1258C23.6169 56.7492 28.0881 55.3804 29.8219 54.6504C30.0956 52.6733 30.8864 51.335 31.7381 50.5746C24.9856 49.8142 17.8985 47.1983 17.8985 35.6096C17.8985 32.2333 19.0544 29.5262 21.0314 27.3667C20.7273 26.6062 19.6627 23.4429 21.3356 19.3367C21.3356 19.3367 23.8906 18.5154 29.7002 22.4392C32.1031 21.77 34.7189 21.4354 37.3044 21.4354C39.8898 21.4354 42.5056 21.77 44.9085 22.4392C50.7181 18.5154 53.2731 19.3367 53.2731 19.3367C54.946 23.4429 53.8814 26.6062 53.5773 27.3667C55.5544 29.5262 56.7102 32.2333 56.7102 35.6096C56.7102 47.2287 49.5927 49.7837 42.8098 50.5442C43.9048 51.4871 44.9085 53.3425 44.9085 56.1712V64.5054C44.9085 65.3267 45.3952 66.3 46.9464 66.0262C59.0219 61.9504 67.721 50.5746 67.721 37.1304C67.721 33.136 66.9343 29.1808 65.4057 25.4905C63.8771 21.8001 61.6366 18.447 58.8122 15.6226C55.9877 12.7981 52.6346 10.5577 48.9443 9.02908C45.254 7.5005 41.2987 6.71375 37.3044 6.71375Z" fill="black"/>
<path d="M12.1182 89.22C9.94487 89.22 8.3182 88.6333 7.2382 87.46C6.1582 86.2733 5.6182 84.6133 5.6182 82.48C5.6182 80.96 5.90487 79.6933 6.4782 78.68C7.05154 77.6667 7.83154 76.9067 8.8182 76.4C9.8182 75.88 10.9515 75.62 12.2182 75.62C12.9382 75.62 13.5115 75.68 13.9382 75.8C14.3649 75.92 14.7049 76.04 14.9582 76.16C15.2115 76.28 15.4182 76.34 15.5782 76.34C15.7649 76.34 15.8982 76.2733 15.9782 76.14C16.0715 75.9933 16.1715 75.82 16.2782 75.62H16.9582V80.28H16.1782C15.9382 78.9467 15.4849 77.9933 14.8182 77.42C14.1515 76.8333 13.2849 76.54 12.2182 76.54C10.8582 76.54 9.8182 77.04 9.0982 78.04C8.39154 79.04 8.0382 80.4267 8.0382 82.2C8.0382 84.2133 8.40487 85.72 9.1382 86.72C9.87154 87.72 10.9249 88.22 12.2982 88.22C12.9115 88.22 13.4249 88.14 13.8382 87.98C14.2649 87.8067 14.6782 87.5667 15.0782 87.26V85.24C15.0782 84.76 15.0382 84.4 14.9582 84.16C14.8782 83.9067 14.7115 83.74 14.4582 83.66C14.2049 83.5667 13.8249 83.52 13.3182 83.52V82.8H18.4782V83.52C17.9182 83.52 17.5515 83.62 17.3782 83.82C17.2182 84.0067 17.1382 84.4133 17.1382 85.04V87.86C16.4182 88.2733 15.6782 88.6067 14.9182 88.86C14.1582 89.1 13.2249 89.22 12.1182 89.22ZM24.6699 89H19.7299V88.36C20.1699 88.36 20.4899 88.32 20.6899 88.24C20.8899 88.16 21.0166 88.0133 21.0699 87.8C21.1233 87.5867 21.1499 87.2933 21.1499 86.92V81.5C21.1499 81.06 21.0699 80.7933 20.9099 80.7C20.7633 80.5933 20.5366 80.54 20.2299 80.54C20.0966 80.54 19.9766 80.5467 19.8699 80.56C19.7766 80.5733 19.7299 80.58 19.7299 80.58V79.92L22.4099 79.36H23.1899V86.9C23.1899 87.2867 23.2166 87.5867 23.2699 87.8C23.3366 88.0133 23.4766 88.16 23.6899 88.24C23.9033 88.32 24.2299 88.36 24.6699 88.36V89ZM22.1699 77.9C21.7966 77.9 21.4899 77.78 21.2499 77.54C21.0099 77.2867 20.8899 76.98 20.8899 76.62C20.8899 76.26 21.0033 75.96 21.2299 75.72C21.4699 75.48 21.7833 75.36 22.1699 75.36C22.5833 75.36 22.9033 75.48 23.1299 75.72C23.3566 75.96 23.4699 76.26 23.4699 76.62C23.4699 76.98 23.3566 77.2867 23.1299 77.54C22.9033 77.78 22.5833 77.9 22.1699 77.9ZM31.4065 87.06L31.8265 87.46C31.5732 87.82 31.3198 88.1333 31.0665 88.4C30.8265 88.6533 30.5465 88.8533 30.2265 89C29.9198 89.1467 29.5065 89.22 28.9865 89.22C28.2932 89.22 27.7732 89.02 27.4265 88.62C27.0932 88.22 26.9265 87.5333 26.9265 86.56V80.6H25.7865V80.02C26.2798 79.7133 26.7198 79.3067 27.1065 78.8C27.5065 78.2933 27.8932 77.6133 28.2665 76.76H28.9665V79.64H31.3065V80.6H28.9665V85.94C28.9665 86.66 29.0332 87.16 29.1665 87.44C29.2998 87.7067 29.5598 87.84 29.9465 87.84C30.2932 87.84 30.5598 87.7733 30.7465 87.64C30.9465 87.5067 31.1665 87.3133 31.4065 87.06ZM38.6052 89H32.5852V88.32C33.1719 88.32 33.5986 88.28 33.8652 88.2C34.1319 88.1067 34.2986 87.9133 34.3652 87.62C34.4452 87.3267 34.4852 86.8867 34.4852 86.3V78.58C34.4852 78.06 34.4519 77.6533 34.3852 77.36C34.3319 77.0533 34.1652 76.84 33.8852 76.72C33.6186 76.6 33.1852 76.54 32.5852 76.54V75.86H38.6252V76.54C38.0119 76.54 37.5652 76.6 37.2852 76.72C37.0186 76.84 36.8519 77.0533 36.7852 77.36C36.7186 77.6533 36.6852 78.06 36.6852 78.58V81.84H43.0052V78.58C43.0052 78.06 42.9719 77.6533 42.9052 77.36C42.8386 77.0533 42.6719 76.84 42.4052 76.72C42.1386 76.6 41.6986 76.54 41.0852 76.54V75.86H47.1452V76.54C46.5186 76.54 46.0652 76.6 45.7852 76.72C45.5186 76.84 45.3519 77.0467 45.2852 77.34C45.2319 77.6333 45.2052 78.0467 45.2052 78.58V86.3C45.2052 86.8733 45.2386 87.3067 45.3052 87.6C45.3852 87.8933 45.5586 88.0867 45.8252 88.18C46.1052 88.2733 46.5452 88.32 47.1452 88.32V89H41.0852V88.32C41.6852 88.32 42.1186 88.2733 42.3852 88.18C42.6652 88.0867 42.8386 87.8933 42.9052 87.6C42.9719 87.3067 43.0052 86.8733 43.0052 86.3V82.72H36.6852V86.3C36.6852 86.8867 36.7186 87.3267 36.7852 87.62C36.8652 87.9 37.0386 88.0867 37.3052 88.18C37.5852 88.2733 38.0186 88.32 38.6052 88.32V89ZM52.3223 89.2C51.4423 89.2 50.7623 88.9333 50.2823 88.4C49.8156 87.8667 49.5823 86.9267 49.5823 85.58V81.58C49.5823 81.2067 49.5423 80.9333 49.4623 80.76C49.3956 80.5867 49.2623 80.48 49.0623 80.44C48.8623 80.3867 48.5823 80.36 48.2223 80.36V79.72L51.0423 79.44H51.6223V85.22C51.6223 85.8867 51.6956 86.4 51.8423 86.76C51.9889 87.1067 52.1889 87.3533 52.4423 87.5C52.6956 87.6333 52.9823 87.7 53.3023 87.7C53.7823 87.7 54.1889 87.6 54.5223 87.4C54.8689 87.2 55.2356 86.9333 55.6223 86.6V81.54C55.6223 81.18 55.5756 80.92 55.4823 80.76C55.3889 80.5867 55.2223 80.48 54.9823 80.44C54.7556 80.3867 54.4223 80.36 53.9823 80.36V79.72L57.0823 79.44H57.6623V86.62C57.6623 87.22 57.7489 87.6 57.9223 87.76C58.0956 87.92 58.4289 88 58.9223 88H59.1023V88.6L56.2623 89.1H55.7223V87.5H55.6223C55.2489 87.8867 54.8889 88.2067 54.5423 88.46C54.2089 88.7133 53.8623 88.9 53.5023 89.02C53.1423 89.14 52.7489 89.2 52.3223 89.2ZM62.4996 74.88H63.1796V80.98H63.2596C63.6063 80.5667 64.0329 80.1867 64.5396 79.84C65.0463 79.48 65.6396 79.3 66.3196 79.3C66.9996 79.3 67.5863 79.4867 68.0796 79.86C68.5863 80.22 68.9729 80.7333 69.2396 81.4C69.5196 82.0533 69.6596 82.8333 69.6596 83.74C69.6596 84.9533 69.4463 85.9667 69.0196 86.78C68.5929 87.5933 67.9996 88.2 67.2396 88.6C66.4929 89 65.6263 89.2 64.6396 89.2C63.7463 89.2 63.0063 89.1 62.4196 88.9C61.8329 88.7 61.4063 88.5333 61.1396 88.4V77.26C61.1396 76.8067 61.0863 76.52 60.9796 76.4C60.8863 76.2667 60.6529 76.2 60.2796 76.2C60.1063 76.2 59.9663 76.2067 59.8596 76.22C59.7529 76.2333 59.6996 76.24 59.6996 76.24V75.58L62.4996 74.88ZM63.1796 81.96V87.38C63.3529 87.6067 63.5863 87.82 63.8796 88.02C64.1863 88.22 64.5796 88.32 65.0596 88.32C65.6463 88.32 66.1129 88.1467 66.4596 87.8C66.8063 87.44 67.0529 86.96 67.1996 86.36C67.3596 85.7467 67.4396 85.0733 67.4396 84.34C67.4396 83.6867 67.3729 83.0933 67.2396 82.56C67.1196 82.0267 66.9063 81.6067 66.5996 81.3C66.2929 80.98 65.8663 80.82 65.3196 80.82C64.8396 80.82 64.4063 80.9533 64.0196 81.22C63.6463 81.4867 63.3663 81.7333 63.1796 81.96Z" fill="black"/>
</svg>
