<svg width="75" height="74" viewBox="0 0 75 74" fill="none" xmlns="http://www.w3.org/2000/svg">
<path d="M37.4891 6.74451C33.4745 6.74451 29.4992 7.53524 25.7902 9.07156C22.0812 10.6079 18.7111 12.8597 15.8724 15.6984C10.1393 21.4316 6.91846 29.2073 6.91846 37.3152C6.91846 50.8274 15.6922 62.2914 27.8288 66.3573C29.3573 66.6018 29.8464 65.6542 29.8464 64.8288V59.6623C21.3784 61.4965 19.5747 55.5658 19.5747 55.5658C18.1685 52.0196 16.1814 51.072 16.1814 51.072C13.3994 49.1766 16.3954 49.2377 16.3954 49.2377C19.4524 49.4517 21.0727 52.3865 21.0727 52.3865C23.7323 57.0332 28.2262 55.6576 29.9687 54.9239C30.2439 52.9368 31.0387 51.5917 31.8947 50.8274C25.108 50.0631 17.985 47.434 17.985 35.7866C17.985 32.3933 19.1467 29.6725 21.1338 27.502C20.8281 26.7377 19.7581 23.5584 21.4395 19.4313C21.4395 19.4313 24.0075 18.6059 29.8464 22.5495C32.2615 21.877 34.8906 21.5407 37.4891 21.5407C40.0876 21.5407 42.7167 21.877 45.1318 22.5495C50.9708 18.6059 53.5387 19.4313 53.5387 19.4313C55.2201 23.5584 54.1501 26.7377 53.8444 27.502C55.8315 29.6725 56.9932 32.3933 56.9932 35.7866C56.9932 47.4646 49.8397 50.0326 43.0224 50.7968C44.1229 51.7445 45.1318 53.6093 45.1318 56.4524V64.8288C45.1318 65.6542 45.6209 66.6324 47.18 66.3573C59.3166 62.2608 68.0598 50.8274 68.0598 37.3152C68.0598 33.3006 67.269 29.3253 65.7327 25.6163C64.1964 21.9073 61.9446 18.5372 59.1058 15.6984C56.2671 12.8597 52.897 10.6079 49.188 9.07156C45.479 7.53524 41.5037 6.74451 37.4891 6.74451Z" fill="black"/>
</svg>
