<svg width="107" height="150" viewBox="0 0 107 150" fill="none" xmlns="http://www.w3.org/2000/svg">
<path d="M0.283691 30.8161L9.95466 138.347L53.3515 149.926L96.869 138.566L106.551 30.8161H0.283691ZM86.4351 55.2967L85.8288 62.2734L85.5621 65.4962H34.6553L35.8715 79.8466H84.3519L84.0278 82.5146L80.9006 117.086L80.671 119.107L53.4172 126.442V126.436L53.3849 126.451L26.1467 119.376L24.2979 98.9805H37.6533L38.5992 109.098L53.41 112.851L53.4172 112.571V112.586L68.2603 109.418L69.8102 93.0011H23.7035L20.434 56.1254L20.1147 52.3417H86.7532L86.4351 55.2967ZM10.3134 0.473389H17.0366V7.11762H23.1881V0.473389H29.9125V20.5902H23.1881V13.8539H17.0378V20.5902H10.3134V0.473389ZM38.7535 7.14513H32.834V0.473389H51.3998V7.14513H45.4779V20.5902H38.7535V7.14513ZM54.3464 0.473389H61.3566L65.6701 7.54215L69.9788 0.473389H76.9925V20.5902H70.2945V10.6191L65.6701 17.7716H65.5529L60.9249 10.6191V20.5902H54.3452L54.3464 0.473389ZM80.3398 0.473389H87.0653V13.9412H96.521V20.5914H80.3398V0.473389Z" fill="black"/>
</svg>
