<svg width="91" height="96" viewBox="0 0 91 96" fill="none" xmlns="http://www.w3.org/2000/svg">
<path d="M7.48367 89H1.44367V88.32C2.04367 88.32 2.47701 88.2733 2.74367 88.18C3.02367 88.0733 3.19701 87.88 3.26367 87.6C3.34367 87.3067 3.38367 86.8733 3.38367 86.3V78.58C3.38367 78.06 3.35034 77.6533 3.28367 77.36C3.21701 77.0533 3.05034 76.84 2.78367 76.72C2.51701 76.6 2.07034 76.54 1.44367 76.54V75.86H7.50367V76.54C6.89034 76.54 6.44367 76.6 6.16367 76.72C5.89701 76.84 5.73034 77.0533 5.66367 77.36C5.61034 77.6533 5.58367 78.06 5.58367 78.58V86.3C5.58367 86.8733 5.61701 87.3067 5.68367 87.6C5.76367 87.88 5.93701 88.0733 6.20367 88.18C6.48367 88.2733 6.91034 88.32 7.48367 88.32V89ZM19.7651 89H14.8451V88.36C15.2984 88.36 15.6251 88.32 15.8251 88.24C16.0251 88.1467 16.1517 88 16.2051 87.8C16.2584 87.5867 16.2851 87.2933 16.2851 86.92V83.44C16.2851 82.7067 16.2051 82.1467 16.0451 81.76C15.8851 81.3733 15.6651 81.1133 15.3851 80.98C15.1184 80.8467 14.8251 80.78 14.5051 80.78C14.1451 80.78 13.8184 80.8467 13.5251 80.98C13.2451 81.1133 12.9851 81.28 12.7451 81.48C12.5184 81.68 12.2917 81.8733 12.0651 82.06L11.9451 80.98H12.2651C12.7984 80.5 13.3051 80.1 13.7851 79.78C14.2651 79.46 14.8184 79.3 15.4451 79.3C16.3917 79.3 17.1051 79.6133 17.5851 80.24C18.0784 80.8533 18.3251 81.76 18.3251 82.96V86.92C18.3251 87.28 18.3517 87.5667 18.4051 87.78C18.4717 87.9933 18.6051 88.1467 18.8051 88.24C19.0184 88.32 19.3384 88.36 19.7651 88.36V89ZM13.7251 89H8.80508V88.36C9.24508 88.36 9.55841 88.32 9.74508 88.24C9.94508 88.1467 10.0651 87.9933 10.1051 87.78C10.1584 87.5667 10.1851 87.28 10.1851 86.92V81.44C10.1851 81.08 10.1117 80.8467 9.96508 80.74C9.83174 80.62 9.63174 80.56 9.36508 80.56C9.19174 80.56 9.05841 80.5667 8.96508 80.58C8.87174 80.5933 8.82508 80.6 8.82508 80.6V79.94L11.5251 79.36H12.1851V81.22L12.2451 81.68V86.92C12.2451 87.28 12.2717 87.5667 12.3251 87.78C12.3784 87.9933 12.5051 88.1467 12.7051 88.24C12.9184 88.32 13.2584 88.36 13.7251 88.36V89ZM20.9782 89.18L20.9182 85.64H21.5582C21.7582 86.64 22.0582 87.3533 22.4582 87.78C22.8582 88.2067 23.4249 88.42 24.1582 88.42C24.6515 88.42 25.0515 88.32 25.3582 88.12C25.6782 87.9067 25.8382 87.5867 25.8382 87.16C25.8382 86.8667 25.7782 86.62 25.6582 86.42C25.5515 86.22 25.3315 86.0133 24.9982 85.8C24.6782 85.5867 24.2049 85.3267 23.5782 85.02C22.9782 84.7267 22.4849 84.44 22.0982 84.16C21.7115 83.88 21.4182 83.56 21.2182 83.2C21.0315 82.84 20.9382 82.4 20.9382 81.88C20.9382 81.0533 21.2315 80.42 21.8182 79.98C22.4182 79.5267 23.1849 79.3 24.1182 79.3C24.6515 79.3 25.0849 79.3667 25.4182 79.5C25.7515 79.6333 26.0315 79.76 26.2582 79.88H26.2982L26.6382 79.42H27.1582L27.2182 82.54H26.5782C26.3515 81.5933 26.0449 80.9467 25.6582 80.6C25.2715 80.24 24.7782 80.06 24.1782 80.06C23.7249 80.06 23.3582 80.1667 23.0782 80.38C22.7982 80.5933 22.6582 80.9 22.6582 81.3C22.6582 81.7 22.8382 82.04 23.1982 82.32C23.5715 82.5867 24.1515 82.92 24.9382 83.32C25.5382 83.6267 26.0515 83.9267 26.4782 84.22C26.9049 84.5133 27.2315 84.84 27.4582 85.2C27.6849 85.56 27.7982 86.0067 27.7982 86.54C27.7982 87.1933 27.6315 87.72 27.2982 88.12C26.9782 88.52 26.5449 88.8067 25.9982 88.98C25.4649 89.14 24.8849 89.22 24.2582 89.22C23.6715 89.22 23.2049 89.16 22.8582 89.04C22.5249 88.92 22.2249 88.8067 21.9582 88.7H21.8982L21.4782 89.18H20.9782ZM34.6018 87.06L35.0218 87.46C34.7685 87.82 34.5151 88.1333 34.2618 88.4C34.0218 88.6533 33.7418 88.8533 33.4218 89C33.1151 89.1467 32.7018 89.22 32.1818 89.22C31.4885 89.22 30.9685 89.02 30.6218 88.62C30.2885 88.22 30.1218 87.5333 30.1218 86.56V80.6H28.9818V80.02C29.4751 79.7133 29.9151 79.3067 30.3018 78.8C30.7018 78.2933 31.0885 77.6133 31.4618 76.76H32.1618V79.64H34.5018V80.6H32.1618V85.94C32.1618 86.66 32.2285 87.16 32.3618 87.44C32.4951 87.7067 32.7551 87.84 33.1418 87.84C33.4885 87.84 33.7551 87.7733 33.9418 87.64C34.1418 87.5067 34.3618 87.3133 34.6018 87.06ZM38.2205 89.16C37.4605 89.16 36.8605 88.96 36.4205 88.56C35.9939 88.16 35.7805 87.6133 35.7805 86.92C35.7805 86.3733 35.9005 85.9133 36.1405 85.54C36.3939 85.1667 36.7205 84.8533 37.1205 84.6C37.5205 84.3467 37.9539 84.14 38.4205 83.98C38.9005 83.8067 39.3672 83.66 39.8205 83.54C40.2739 83.42 40.6805 83.3067 41.0405 83.2V82.28C41.0405 81.4267 40.9072 80.8333 40.6405 80.5C40.3872 80.1667 39.9805 80 39.4205 80C38.9005 80 38.5605 80.1133 38.4005 80.34C38.2539 80.5533 38.1805 80.96 38.1805 81.56C38.1805 81.9067 38.0872 82.1667 37.9005 82.34C37.7139 82.5 37.4672 82.58 37.1605 82.58C36.9339 82.58 36.7139 82.4933 36.5005 82.32C36.3005 82.1467 36.2005 81.8733 36.2005 81.5C36.2005 81.1267 36.3472 80.7733 36.6405 80.44C36.9339 80.0933 37.3472 79.82 37.8805 79.62C38.4272 79.4067 39.0672 79.3 39.8005 79.3C40.9472 79.3 41.7805 79.5467 42.3005 80.04C42.8205 80.5333 43.0805 81.3133 43.0805 82.38V86.86C43.0805 87.2733 43.1272 87.54 43.2205 87.66C43.3139 87.78 43.4672 87.84 43.6805 87.84C43.8672 87.84 44.0339 87.7933 44.1805 87.7C44.3405 87.5933 44.4939 87.4667 44.6405 87.32L44.9805 87.68C44.6472 88.16 44.3139 88.5267 43.9805 88.78C43.6472 89.02 43.1872 89.14 42.6005 89.14C42.0539 89.14 41.6939 89.0133 41.5205 88.76C41.3472 88.4933 41.2272 88.1067 41.1605 87.6L41.0405 87.3V83.9C40.4672 84.0467 39.9405 84.22 39.4605 84.42C38.9939 84.6067 38.6139 84.86 38.3205 85.18C38.0405 85.4867 37.9005 85.8933 37.9005 86.4C37.9005 86.8933 38.0139 87.28 38.2405 87.56C38.4672 87.8267 38.7805 87.96 39.1805 87.96C39.5005 87.96 39.8272 87.88 40.1605 87.72C40.5072 87.56 40.8605 87.3133 41.2205 86.98L41.3605 87.82H41.1005C40.7939 88.0867 40.5005 88.3267 40.2205 88.54C39.9539 88.74 39.6605 88.8933 39.3405 89C39.0339 89.1067 38.6605 89.16 38.2205 89.16ZM48.8229 93.7C47.9429 93.7 47.2496 93.6 46.7429 93.4C46.2362 93.2 45.8762 92.9333 45.6629 92.6C45.4629 92.2667 45.3629 91.9133 45.3629 91.54C45.3629 91.18 45.4962 90.8267 45.7629 90.48C46.0296 90.1467 46.4229 89.74 46.9429 89.26V89.02L47.6429 89.2C47.4429 89.5333 47.2962 89.8333 47.2029 90.1C47.1096 90.38 47.0629 90.64 47.0629 90.88C47.0629 91.4133 47.3029 91.8133 47.7829 92.08C48.2629 92.36 49.0162 92.5 50.0429 92.5C50.8162 92.5 51.4296 92.4067 51.8829 92.22C52.3496 92.0467 52.6829 91.8267 52.8829 91.56C53.0829 91.2933 53.1829 91.0267 53.1829 90.76C53.1829 90.4133 53.0762 90.1467 52.8629 89.96C52.6496 89.7867 52.3762 89.66 52.0429 89.58C51.7229 89.5 51.3696 89.4467 50.9829 89.42C50.6096 89.4067 50.2429 89.4 49.8829 89.4C49.2962 89.3867 48.8429 89.38 48.5229 89.38C48.2029 89.38 47.9696 89.3733 47.8229 89.36C47.6762 89.36 47.5496 89.36 47.4429 89.36L47.1029 89.24C46.9296 89.1867 46.7362 89.0933 46.5229 88.96C46.3229 88.8267 46.1429 88.6533 45.9829 88.44C45.8362 88.2267 45.7629 87.98 45.7629 87.7C45.7629 87.3933 45.8362 87.1067 45.9829 86.84C46.1296 86.5733 46.3296 86.32 46.5829 86.08C46.8362 85.8267 47.1162 85.58 47.4229 85.34V85.1L48.1029 85.48C48.0229 85.5867 47.9362 85.72 47.8429 85.88C47.7496 86.04 47.6762 86.2067 47.6229 86.38C47.5696 86.5533 47.5429 86.7067 47.5429 86.84C47.5429 87.0267 47.6029 87.1733 47.7229 87.28C47.8562 87.3867 48.0962 87.4667 48.4429 87.52C48.7896 87.56 49.3029 87.5867 49.9829 87.6C50.9162 87.6 51.7229 87.6533 52.4029 87.76C53.0829 87.8533 53.6096 88.0733 53.9829 88.42C54.3562 88.7533 54.5429 89.2933 54.5429 90.04C54.5429 90.72 54.3629 91.2933 54.0029 91.76C53.6562 92.2267 53.1962 92.6 52.6229 92.88C52.0629 93.1733 51.4429 93.38 50.7629 93.5C50.0962 93.6333 49.4496 93.7 48.8229 93.7ZM49.7829 85.92C49.4229 85.92 49.0829 85.8867 48.7629 85.82C48.4562 85.7533 48.1562 85.6667 47.8629 85.56L47.5629 85.34C47.2562 85.1667 46.9762 84.9667 46.7229 84.74C46.4829 84.5 46.2829 84.2067 46.1229 83.86C45.9762 83.5133 45.9029 83.0867 45.9029 82.58C45.9029 81.8867 46.0696 81.3 46.4029 80.82C46.7496 80.3267 47.2096 79.9533 47.7829 79.7C48.3562 79.4467 48.9962 79.32 49.7029 79.32C50.0896 79.32 50.4762 79.3533 50.8629 79.42C51.2496 79.4867 51.6162 79.5867 51.9629 79.72C52.3096 79.8533 52.6029 80.0133 52.8429 80.2V80.84C52.9762 81.04 53.1162 81.3 53.2629 81.62C53.4229 81.94 53.5029 82.3533 53.5029 82.86C53.5029 83.5267 53.3362 84.0933 53.0029 84.56C52.6829 85.0133 52.2429 85.3533 51.6829 85.58C51.1229 85.8067 50.4896 85.92 49.7829 85.92ZM49.8029 85.14C50.2696 85.14 50.6562 84.9733 50.9629 84.64C51.2696 84.2933 51.4229 83.66 51.4229 82.74C51.4229 81.9133 51.2629 81.2733 50.9429 80.82C50.6229 80.3533 50.1696 80.12 49.5829 80.12C49.1029 80.12 48.7096 80.3133 48.4029 80.7C48.0962 81.0733 47.9429 81.6733 47.9429 82.5C47.9429 83.3667 48.1029 84.0267 48.4229 84.48C48.7562 84.92 49.2162 85.14 49.8029 85.14ZM54.7229 79.66V80.8L52.5429 80.76L51.8629 79.78L54.7229 79.66ZM60.8634 89H55.4634V88.36C55.9034 88.36 56.2234 88.3267 56.4234 88.26C56.6367 88.18 56.77 88.04 56.8234 87.84C56.89 87.64 56.9234 87.3533 56.9234 86.98V81.68C56.9234 81.32 56.8834 81.0467 56.8034 80.86C56.7367 80.6733 56.53 80.58 56.1834 80.58C55.9834 80.58 55.83 80.5867 55.7234 80.6C55.6167 80.6133 55.5634 80.62 55.5634 80.62V79.96L58.2434 79.36H58.9234V81.42H59.0034C59.35 80.94 59.65 80.54 59.9034 80.22C60.1567 79.9 60.41 79.66 60.6634 79.5C60.93 79.3267 61.2367 79.24 61.5834 79.24C62.0234 79.24 62.3434 79.3533 62.5434 79.58C62.7567 79.8067 62.8634 80.12 62.8634 80.52C62.8634 80.96 62.7634 81.28 62.5634 81.48C62.3634 81.68 62.1367 81.78 61.8834 81.78C61.6434 81.78 61.43 81.72 61.2434 81.6C61.07 81.4667 60.9167 81.34 60.7834 81.22C60.6634 81.1 60.5567 81.04 60.4634 81.04C60.25 81.04 60.0034 81.1867 59.7234 81.48C59.4567 81.7733 59.2034 82.1 58.9634 82.46V86.88C58.9634 87.2933 59.0167 87.6067 59.1234 87.82C59.2434 88.0333 59.4434 88.18 59.7234 88.26C60.0034 88.3267 60.3834 88.36 60.8634 88.36V89ZM65.8573 89.16C65.0973 89.16 64.4973 88.96 64.0573 88.56C63.6306 88.16 63.4173 87.6133 63.4173 86.92C63.4173 86.3733 63.5373 85.9133 63.7773 85.54C64.0306 85.1667 64.3573 84.8533 64.7573 84.6C65.1573 84.3467 65.5906 84.14 66.0573 83.98C66.5373 83.8067 67.0039 83.66 67.4573 83.54C67.9106 83.42 68.3173 83.3067 68.6773 83.2V82.28C68.6773 81.4267 68.5439 80.8333 68.2773 80.5C68.0239 80.1667 67.6173 80 67.0573 80C66.5373 80 66.1973 80.1133 66.0373 80.34C65.8906 80.5533 65.8173 80.96 65.8173 81.56C65.8173 81.9067 65.7239 82.1667 65.5373 82.34C65.3506 82.5 65.1039 82.58 64.7973 82.58C64.5706 82.58 64.3506 82.4933 64.1373 82.32C63.9373 82.1467 63.8373 81.8733 63.8373 81.5C63.8373 81.1267 63.9839 80.7733 64.2773 80.44C64.5706 80.0933 64.9839 79.82 65.5173 79.62C66.0639 79.4067 66.7039 79.3 67.4373 79.3C68.5839 79.3 69.4173 79.5467 69.9373 80.04C70.4573 80.5333 70.7173 81.3133 70.7173 82.38V86.86C70.7173 87.2733 70.7639 87.54 70.8573 87.66C70.9506 87.78 71.1039 87.84 71.3173 87.84C71.5039 87.84 71.6706 87.7933 71.8173 87.7C71.9773 87.5933 72.1306 87.4667 72.2773 87.32L72.6173 87.68C72.2839 88.16 71.9506 88.5267 71.6173 88.78C71.2839 89.02 70.8239 89.14 70.2373 89.14C69.6906 89.14 69.3306 89.0133 69.1573 88.76C68.9839 88.4933 68.8639 88.1067 68.7973 87.6L68.6773 87.3V83.9C68.1039 84.0467 67.5773 84.22 67.0973 84.42C66.6306 84.6067 66.2506 84.86 65.9573 85.18C65.6773 85.4867 65.5373 85.8933 65.5373 86.4C65.5373 86.8933 65.6506 87.28 65.8773 87.56C66.1039 87.8267 66.4173 87.96 66.8173 87.96C67.1373 87.96 67.4639 87.88 67.7973 87.72C68.1439 87.56 68.4973 87.3133 68.8573 86.98L68.9973 87.82H68.7373C68.4306 88.0867 68.1373 88.3267 67.8573 88.54C67.5906 88.74 67.2973 88.8933 66.9773 89C66.6706 89.1067 66.2973 89.16 65.8573 89.16ZM84.0196 89H79.0396V88.36C79.4929 88.36 79.8196 88.3133 80.0196 88.22C80.2196 88.1267 80.3463 87.96 80.3996 87.72C80.4663 87.48 80.4996 87.14 80.4996 86.7V83.02C80.4996 82.1267 80.3529 81.5333 80.0596 81.24C79.7796 80.9333 79.4063 80.78 78.9396 80.78C78.5929 80.78 78.2663 80.8533 77.9596 81C77.6663 81.1333 77.3929 81.3 77.1396 81.5C76.8863 81.6867 76.6663 81.88 76.4796 82.08L76.3196 80.98H76.6596C77.1663 80.5267 77.6663 80.1333 78.1596 79.8C78.6663 79.4667 79.2596 79.3 79.9396 79.3C80.6329 79.3 81.1796 79.4933 81.5796 79.88C81.9929 80.2533 82.2796 80.7467 82.4396 81.36C82.4663 81.4533 82.4863 81.5533 82.4996 81.66C82.5129 81.7533 82.5263 81.8533 82.5396 81.96V86.7C82.5396 87.1267 82.5663 87.46 82.6196 87.7C82.6863 87.94 82.8263 88.1133 83.0396 88.22C83.2529 88.3133 83.5796 88.36 84.0196 88.36V89ZM78.0996 89H73.1996V88.36C73.6263 88.36 73.9329 88.32 74.1196 88.24C74.3196 88.16 74.4463 88.02 74.4996 87.82C74.5529 87.6067 74.5796 87.3067 74.5796 86.92V81.46C74.5796 81.0867 74.5129 80.8467 74.3796 80.74C74.2463 80.62 74.0396 80.56 73.7596 80.56C73.5996 80.56 73.4663 80.5667 73.3596 80.58C73.2663 80.5933 73.2196 80.6 73.2196 80.6V79.94L75.8996 79.36H76.5596V81.22L76.6196 81.7V86.96C76.6196 87.3333 76.6529 87.62 76.7196 87.82C76.7996 88.02 76.9463 88.16 77.1596 88.24C77.3729 88.32 77.6863 88.36 78.0996 88.36V89ZM89.8196 89H84.9796V88.36C85.4196 88.36 85.7329 88.3067 85.9196 88.2C86.1196 88.08 86.2396 87.9 86.2796 87.66C86.3329 87.42 86.3596 87.1 86.3596 86.7V83.1C86.3596 82.4733 86.2863 82 86.1396 81.68C86.0063 81.3467 85.8129 81.1133 85.5596 80.98C85.3196 80.8467 85.0396 80.78 84.7196 80.78C84.2929 80.78 83.8729 80.92 83.4596 81.2C83.0463 81.48 82.6796 81.7667 82.3596 82.06L82.0996 81.02H82.4196C82.9529 80.4733 83.4796 80.0533 83.9996 79.76C84.5329 79.4533 85.0863 79.3 85.6596 79.3C86.4996 79.3 87.1663 79.5733 87.6596 80.12C88.1529 80.6533 88.3996 81.54 88.3996 82.78V86.7C88.3996 87.1 88.4263 87.4267 88.4796 87.68C88.5329 87.92 88.6596 88.0933 88.8596 88.2C89.0596 88.3067 89.3796 88.36 89.8196 88.36V89Z" fill="black"/>
<path d="M18.125 34.0888C18.125 22.6187 18.125 16.8821 21.6898 13.3203C25.2547 9.75853 30.9882 9.75549 42.4583 9.75549H48.5417C60.0118 9.75549 65.7484 9.75549 69.3102 13.3203C72.872 16.8852 72.875 22.6187 72.875 34.0888V40.1722C72.875 51.6423 72.875 57.3789 69.3102 60.9407C65.7453 64.5024 60.0118 64.5055 48.5417 64.5055H42.4583C30.9882 64.5055 25.2516 64.5055 21.6898 60.9407C18.128 57.3758 18.125 51.6423 18.125 40.1722V34.0888Z" stroke="black" stroke-width="6.11413"/>
<path d="M59.1875 28.0055C61.7073 28.0055 63.75 25.9628 63.75 23.443C63.75 20.9232 61.7073 18.8805 59.1875 18.8805C56.6677 18.8805 54.625 20.9232 54.625 23.443C54.625 25.9628 56.6677 28.0055 59.1875 28.0055Z" fill="black"/>
<path d="M45.5 46.2555C50.5396 46.2555 54.625 42.1701 54.625 37.1305C54.625 32.0909 50.5396 28.0055 45.5 28.0055C40.4604 28.0055 36.375 32.0909 36.375 37.1305C36.375 42.1701 40.4604 46.2555 45.5 46.2555Z" stroke="black" stroke-width="6.11413"/>
</svg>
