<svg width="74" height="74" viewBox="0 0 74 74" fill="none" xmlns="http://www.w3.org/2000/svg">
<path d="M9.1712 34.2582C9.1712 22.73 9.1712 16.9643 12.7541 13.3845C16.337 9.80469 22.0995 9.80164 33.6277 9.80164H39.7419C51.27 9.80164 57.0357 9.80164 60.6155 13.3845C64.1953 16.9674 64.1984 22.73 64.1984 34.2582V40.3723C64.1984 51.9005 64.1984 57.6661 60.6155 61.2459C57.0326 64.8257 51.27 64.8288 39.7419 64.8288H33.6277C22.0995 64.8288 16.3339 64.8288 12.7541 61.2459C9.17426 57.663 9.1712 51.9005 9.1712 40.3723V34.2582Z" stroke="black" stroke-width="6.11413"/>
<path d="M50.4416 28.144C52.9741 28.144 55.0272 26.0909 55.0272 23.5584C55.0272 21.0258 52.9741 18.9728 50.4416 18.9728C47.909 18.9728 45.856 21.0258 45.856 23.5584C45.856 26.0909 47.909 28.144 50.4416 28.144Z" fill="black"/>
<path d="M36.6848 46.4864C41.7499 46.4864 45.856 42.3804 45.856 37.3152C45.856 32.2501 41.7499 28.144 36.6848 28.144C31.6197 28.144 27.5136 32.2501 27.5136 37.3152C27.5136 42.3804 31.6197 46.4864 36.6848 46.4864Z" stroke="black" stroke-width="6.11413"/>
</svg>
