<svg width="81" height="97" viewBox="0 0 81 97" fill="none" xmlns="http://www.w3.org/2000/svg">
<path d="M61.7917 9.125C63.4051 9.125 64.9524 9.76592 66.0932 10.9068C67.2341 12.0476 67.875 13.5949 67.875 15.2083V57.7917C67.875 59.4051 67.2341 60.9524 66.0932 62.0932C64.9524 63.2341 63.4051 63.875 61.7917 63.875H19.2083C17.5949 63.875 16.0476 63.2341 14.9068 62.0932C13.7659 60.9524 13.125 59.4051 13.125 57.7917V15.2083C13.125 13.5949 13.7659 12.0476 14.9068 10.9068C16.0476 9.76592 17.5949 9.125 19.2083 9.125H61.7917ZM60.2708 56.2708V40.15C60.2708 37.5202 59.2261 34.998 57.3666 33.1384C55.507 31.2789 52.9848 30.2342 50.355 30.2342C47.7696 30.2342 44.7583 31.8158 43.2983 34.1883V30.8121H34.8121V56.2708H43.2983V41.2754C43.2983 38.9333 45.1842 37.0171 47.5262 37.0171C48.6556 37.0171 49.7388 37.4657 50.5373 38.2643C51.3359 39.0629 51.7846 40.146 51.7846 41.2754V56.2708H60.2708ZM24.9267 26.0367C26.2819 26.0367 27.5817 25.4983 28.54 24.54C29.4983 23.5817 30.0367 22.2819 30.0367 20.9267C30.0367 18.0979 27.7554 15.7862 24.9267 15.7862C23.5633 15.7862 22.2559 16.3278 21.2918 17.2918C20.3278 18.2559 19.7862 19.5633 19.7862 20.9267C19.7862 23.7554 22.0979 26.0367 24.9267 26.0367ZM29.1546 56.2708V30.8121H20.7292V56.2708H29.1546Z" fill="black"/>
<path d="M11.2113 90H0.81125V89.32C1.35792 89.32 1.75792 89.2733 2.01125 89.18C2.27792 89.0867 2.45125 88.9067 2.53125 88.64C2.61125 88.3733 2.65125 87.98 2.65125 87.46V79.48C2.65125 78.96 2.61125 78.56 2.53125 78.28C2.46458 78 2.29792 77.8067 2.03125 77.7C1.76458 77.5933 1.36458 77.54 0.83125 77.54V76.86H6.81125V77.54C6.26458 77.54 5.85125 77.6 5.57125 77.72C5.29125 77.8267 5.09792 78.02 4.99125 78.3C4.89792 78.58 4.85125 78.98 4.85125 79.5V87.94C4.85125 88.3933 4.95792 88.6933 5.17125 88.84C5.38458 88.9733 5.78458 89.04 6.37125 89.04H7.39125C8.01792 89.04 8.53125 88.9933 8.93125 88.9C9.33125 88.7933 9.65125 88.6267 9.89125 88.4C10.1313 88.16 10.3313 87.8467 10.4913 87.46C10.6646 87.06 10.8446 86.5733 11.0313 86H11.7912L11.2113 90ZM17.6406 90H12.7006V89.36C13.1406 89.36 13.4606 89.32 13.6606 89.24C13.8606 89.16 13.9873 89.0133 14.0406 88.8C14.094 88.5867 14.1206 88.2933 14.1206 87.92V82.5C14.1206 82.06 14.0406 81.7933 13.8806 81.7C13.734 81.5933 13.5073 81.54 13.2006 81.54C13.0673 81.54 12.9473 81.5467 12.8406 81.56C12.7473 81.5733 12.7006 81.58 12.7006 81.58V80.92L15.3806 80.36H16.1606V87.9C16.1606 88.2867 16.1873 88.5867 16.2406 88.8C16.3073 89.0133 16.4473 89.16 16.6606 89.24C16.874 89.32 17.2006 89.36 17.6406 89.36V90ZM15.1406 78.9C14.7673 78.9 14.4606 78.78 14.2206 78.54C13.9806 78.2867 13.8606 77.98 13.8606 77.62C13.8606 77.26 13.974 76.96 14.2006 76.72C14.4406 76.48 14.754 76.36 15.1406 76.36C15.554 76.36 15.874 76.48 16.1006 76.72C16.3273 76.96 16.4406 77.26 16.4406 77.62C16.4406 77.98 16.3273 78.2867 16.1006 78.54C15.874 78.78 15.554 78.9 15.1406 78.9ZM29.6772 90H24.7572V89.36C25.2105 89.36 25.5372 89.32 25.7372 89.24C25.9372 89.1467 26.0639 89 26.1172 88.8C26.1705 88.5867 26.1972 88.2933 26.1972 87.92V84.44C26.1972 83.7067 26.1172 83.1467 25.9572 82.76C25.7972 82.3733 25.5772 82.1133 25.2972 81.98C25.0305 81.8467 24.7372 81.78 24.4172 81.78C24.0572 81.78 23.7305 81.8467 23.4372 81.98C23.1572 82.1133 22.8972 82.28 22.6572 82.48C22.4305 82.68 22.2039 82.8733 21.9772 83.06L21.8572 81.98H22.1772C22.7105 81.5 23.2172 81.1 23.6972 80.78C24.1772 80.46 24.7305 80.3 25.3572 80.3C26.3039 80.3 27.0172 80.6133 27.4972 81.24C27.9905 81.8533 28.2372 82.76 28.2372 83.96V87.92C28.2372 88.28 28.2639 88.5667 28.3172 88.78C28.3839 88.9933 28.5172 89.1467 28.7172 89.24C28.9305 89.32 29.2505 89.36 29.6772 89.36V90ZM23.6372 90H18.7172V89.36C19.1572 89.36 19.4705 89.32 19.6572 89.24C19.8572 89.1467 19.9772 88.9933 20.0172 88.78C20.0705 88.5667 20.0972 88.28 20.0972 87.92V82.44C20.0972 82.08 20.0239 81.8467 19.8772 81.74C19.7439 81.62 19.5439 81.56 19.2772 81.56C19.1039 81.56 18.9705 81.5667 18.8772 81.58C18.7839 81.5933 18.7372 81.6 18.7372 81.6V80.94L21.4372 80.36H22.0972V82.22L22.1572 82.68V87.92C22.1572 88.28 22.1839 88.5667 22.2372 88.78C22.2905 88.9933 22.4172 89.1467 22.6172 89.24C22.8305 89.32 23.1705 89.36 23.6372 89.36V90ZM35.5303 90H30.5903V89.36C31.2036 89.36 31.5903 89.2733 31.7503 89.1C31.9236 88.9267 32.0103 88.5667 32.0103 88.02V78.08C32.0103 77.6933 31.9503 77.44 31.8303 77.32C31.7103 77.2 31.497 77.14 31.1903 77.14C31.057 77.14 30.9103 77.1467 30.7503 77.16C30.5903 77.1733 30.5103 77.18 30.5103 77.18V76.56L33.2703 75.88H34.0503V84.7H34.1903L36.6303 82.2C36.6703 82.16 36.737 82.0867 36.8303 81.98C36.9236 81.86 36.9703 81.7267 36.9703 81.58C36.9703 81.4467 36.9036 81.3533 36.7703 81.3C36.637 81.2333 36.3703 81.2 35.9703 81.2V80.54H40.5703V81.2C40.277 81.2 40.0036 81.2333 39.7503 81.3C39.5103 81.3533 39.257 81.4667 38.9903 81.64C38.7236 81.8 38.4036 82.0267 38.0303 82.32C37.6703 82.6133 37.2103 83 36.6503 83.48L35.7303 84.24L39.4103 88.32C39.7036 88.64 39.9436 88.8733 40.1303 89.02C40.317 89.1667 40.497 89.26 40.6703 89.3C40.857 89.34 41.077 89.36 41.3303 89.36V90H36.6503V89.36C36.9436 89.36 37.137 89.34 37.2303 89.3C37.337 89.26 37.3903 89.1933 37.3903 89.1C37.3903 89.02 37.3703 88.94 37.3303 88.86C37.2903 88.7667 37.237 88.6867 37.1703 88.62L34.1903 85.22H34.0503V88.1C34.0503 88.62 34.1436 88.96 34.3303 89.12C34.517 89.28 34.917 89.36 35.5303 89.36V90ZM45.8716 90.2C45.0182 90.2 44.2582 90.0133 43.5916 89.64C42.9382 89.2667 42.4249 88.7133 42.0516 87.98C41.6916 87.2333 41.5116 86.3267 41.5116 85.26C41.5116 84.14 41.7116 83.2133 42.1116 82.48C42.5116 81.7467 43.0449 81.2 43.7116 80.84C44.3782 80.48 45.1182 80.3 45.9316 80.3C47.0782 80.3 47.9982 80.68 48.6916 81.44C49.3849 82.2 49.7516 83.3 49.7916 84.74H43.3516L43.3316 83.94H47.5316C47.5182 83.42 47.4449 82.9467 47.3116 82.52C47.1782 82.0933 46.9716 81.7533 46.6916 81.5C46.4249 81.2467 46.0716 81.12 45.6316 81.12C44.9116 81.12 44.3782 81.4133 44.0316 82C43.6982 82.5867 43.5316 83.4467 43.5316 84.58C43.5316 85.4867 43.6649 86.2333 43.9316 86.82C44.1982 87.3933 44.5582 87.82 45.0116 88.1C45.4649 88.3667 45.9716 88.5 46.5316 88.5C47.0649 88.5 47.5049 88.4333 47.8516 88.3C48.2116 88.1667 48.5116 87.9867 48.7516 87.76C49.0049 87.5333 49.2382 87.28 49.4516 87L49.8716 87.32C49.6849 87.6933 49.4782 88.06 49.2516 88.42C49.0249 88.7667 48.7582 89.0733 48.4516 89.34C48.1582 89.6067 47.7982 89.82 47.3716 89.98C46.9582 90.1267 46.4582 90.2 45.8716 90.2ZM54.5409 90.18C53.7809 90.18 53.1476 89.98 52.6409 89.58C52.1343 89.1667 51.7543 88.6133 51.5009 87.92C51.2476 87.2267 51.1209 86.4533 51.1209 85.6C51.1209 84.4533 51.3209 83.4867 51.7209 82.7C52.1343 81.9133 52.6876 81.32 53.3809 80.92C54.0876 80.5067 54.8609 80.3 55.7009 80.3C56.0076 80.3 56.3209 80.34 56.6409 80.42C56.9609 80.4867 57.2743 80.6 57.5809 80.76H57.6609V78.26C57.6609 77.82 57.6076 77.5333 57.5009 77.4C57.4076 77.2667 57.1676 77.2 56.7809 77.2C56.6876 77.2 56.5743 77.2067 56.4409 77.22C56.3076 77.2333 56.2409 77.24 56.2409 77.24V76.58L58.9609 75.88H59.7009V87.82C59.7009 88.3267 59.7743 88.66 59.9209 88.82C60.0676 88.9667 60.3276 89.04 60.7009 89.04H61.1209V89.68L58.2409 90.1H57.7009V88.76H57.6209C57.2476 89.0933 56.8076 89.4133 56.3009 89.72C55.7943 90.0267 55.2076 90.18 54.5409 90.18ZM55.5809 88.66C56.0209 88.66 56.3876 88.6 56.6809 88.48C56.9876 88.3467 57.3143 88.16 57.6609 87.92V82.78C57.5676 82.3933 57.3743 82.04 57.0809 81.72C56.7876 81.3867 56.3409 81.22 55.7409 81.22C54.9943 81.22 54.3943 81.52 53.9409 82.12C53.5009 82.7067 53.2809 83.6267 53.2809 84.88C53.2809 86.2133 53.4743 87.18 53.8609 87.78C54.2609 88.3667 54.8343 88.66 55.5809 88.66ZM68.2942 90H62.2542V89.32C62.8542 89.32 63.2876 89.2733 63.5542 89.18C63.8342 89.0733 64.0076 88.88 64.0742 88.6C64.1542 88.3067 64.1942 87.8733 64.1942 87.3V79.58C64.1942 79.06 64.1609 78.6533 64.0942 78.36C64.0276 78.0533 63.8609 77.84 63.5942 77.72C63.3276 77.6 62.8809 77.54 62.2542 77.54V76.86H68.3142V77.54C67.7009 77.54 67.2542 77.6 66.9742 77.72C66.7076 77.84 66.5409 78.0533 66.4742 78.36C66.4209 78.6533 66.3942 79.06 66.3942 79.58V87.3C66.3942 87.8733 66.4276 88.3067 66.4942 88.6C66.5742 88.88 66.7476 89.0733 67.0142 89.18C67.2942 89.2733 67.7209 89.32 68.2942 89.32V90ZM80.5756 90H75.6556V89.36C76.109 89.36 76.4356 89.32 76.6356 89.24C76.8356 89.1467 76.9623 89 77.0156 88.8C77.069 88.5867 77.0956 88.2933 77.0956 87.92V84.44C77.0956 83.7067 77.0156 83.1467 76.8556 82.76C76.6956 82.3733 76.4756 82.1133 76.1956 81.98C75.929 81.8467 75.6356 81.78 75.3156 81.78C74.9556 81.78 74.629 81.8467 74.3356 81.98C74.0556 82.1133 73.7956 82.28 73.5556 82.48C73.329 82.68 73.1023 82.8733 72.8756 83.06L72.7556 81.98H73.0756C73.609 81.5 74.1156 81.1 74.5956 80.78C75.0756 80.46 75.629 80.3 76.2556 80.3C77.2023 80.3 77.9156 80.6133 78.3956 81.24C78.889 81.8533 79.1356 82.76 79.1356 83.96V87.92C79.1356 88.28 79.1623 88.5667 79.2156 88.78C79.2823 88.9933 79.4156 89.1467 79.6156 89.24C79.829 89.32 80.149 89.36 80.5756 89.36V90ZM74.5356 90H69.6156V89.36C70.0556 89.36 70.369 89.32 70.5556 89.24C70.7556 89.1467 70.8756 88.9933 70.9156 88.78C70.969 88.5667 70.9956 88.28 70.9956 87.92V82.44C70.9956 82.08 70.9223 81.8467 70.7756 81.74C70.6423 81.62 70.4423 81.56 70.1756 81.56C70.0023 81.56 69.869 81.5667 69.7756 81.58C69.6823 81.5933 69.6356 81.6 69.6356 81.6V80.94L72.3356 80.36H72.9956V82.22L73.0556 82.68V87.92C73.0556 88.28 73.0823 88.5667 73.1356 88.78C73.189 88.9933 73.3156 89.1467 73.5156 89.24C73.729 89.32 74.069 89.36 74.5356 89.36V90Z" fill="black"/>
</svg>
