<svg width="74" height="74" viewBox="0 0 74 74" fill="none" xmlns="http://www.w3.org/2000/svg">
<path d="M58.5407 9.80164C60.1623 9.80164 61.7174 10.4458 62.8641 11.5924C64.0107 12.739 64.6549 14.2942 64.6549 15.9158V58.7147C64.6549 60.3362 64.0107 61.8914 62.8641 63.038C61.7174 64.1846 60.1623 64.8288 58.5407 64.8288H15.7418C14.1202 64.8288 12.5651 64.1846 11.4185 63.038C10.2719 61.8914 9.62769 60.3362 9.62769 58.7147V15.9158C9.62769 14.2942 10.2719 12.739 11.4185 11.5924C12.5651 10.4458 14.1202 9.80164 15.7418 9.80164H58.5407ZM57.0122 57.1861V40.9837C57.0122 38.3405 55.9622 35.8056 54.0932 33.9366C52.2242 32.0677 49.6893 31.0177 47.0462 31.0177C44.4477 31.0177 41.4212 32.6073 39.9538 34.9919V31.5985H31.4246V57.1861H39.9538V42.1148C39.9538 39.7609 41.8492 37.8349 44.2031 37.8349C45.3382 37.8349 46.4268 38.2858 47.2294 39.0885C48.0321 39.8911 48.483 40.9797 48.483 42.1148V57.1861H57.0122ZM21.4891 26.7989C22.8512 26.7989 24.1575 26.2578 25.1207 25.2947C26.0839 24.3315 26.625 23.0252 26.625 21.663C26.625 18.82 24.3322 16.4966 21.4891 16.4966C20.1189 16.4966 18.8048 17.0409 17.8359 18.0098C16.867 18.9787 16.3227 20.2928 16.3227 21.663C16.3227 24.5061 18.646 26.7989 21.4891 26.7989ZM25.7384 57.1861V31.5985H17.2703V57.1861H25.7384Z" fill="black"/>
</svg>
