<svg width="78" height="106" viewBox="0 0 78 106" fill="none" xmlns="http://www.w3.org/2000/svg">
<path d="M14.3596 61.2648C12.6867 61.2648 11.2551 60.6697 10.0647 59.4794C8.87444 58.289 8.27827 56.8564 8.27625 55.1815V18.6815C8.27625 17.0086 8.87241 15.5769 10.0647 14.3866C11.2571 13.1963 12.6887 12.6002 14.3596 12.5981H63.0262C64.6992 12.5981 66.1318 13.1943 67.3241 14.3866C68.5165 15.579 69.1116 17.0106 69.1096 18.6815V55.1815C69.1096 56.8544 68.5144 58.287 67.3241 59.4794C66.1338 60.6717 64.7012 61.2668 63.0262 61.2648H14.3596ZM38.6929 39.9731L14.3596 24.7648V55.1815H63.0262V24.7648L38.6929 39.9731ZM38.6929 33.8898L63.0262 18.6815H14.3596L38.6929 33.8898ZM14.3596 24.7648V18.6815V55.1815V24.7648Z" fill="black"/>
<path d="M9.31859 91H4.61859V90.4C5.16526 90.4 5.57193 90.3533 5.83859 90.26C6.10526 90.1533 6.28526 89.9333 6.37859 89.6C6.47193 89.2667 6.51859 88.76 6.51859 88.08V80.3C6.51859 79.7933 6.47193 79.4133 6.37859 79.16C6.28526 78.8933 6.10526 78.7133 5.83859 78.62C5.58526 78.5133 5.19193 78.46 4.65859 78.46V77.86H8.73859L12.9586 87.92H13.0386L17.2386 77.86H21.0386V78.46C20.5719 78.46 20.2119 78.5133 19.9586 78.62C19.7053 78.7133 19.5319 78.8933 19.4386 79.16C19.3453 79.4133 19.2986 79.7867 19.2986 80.28V88.62C19.2986 89.1 19.3453 89.4733 19.4386 89.74C19.5319 89.9933 19.7053 90.1667 19.9586 90.26C20.2119 90.3533 20.5786 90.4 21.0586 90.4V91H15.7386V90.4C16.2586 90.4 16.6453 90.3533 16.8986 90.26C17.1519 90.1667 17.3186 89.9933 17.3986 89.74C17.4786 89.4733 17.5186 89.1 17.5186 88.62V80H17.4386L12.7786 91H12.2986L7.57859 80.02H7.49859V88.08C7.49859 88.76 7.54526 89.2667 7.63859 89.6C7.73193 89.9333 7.90526 90.1533 8.15859 90.26C8.42526 90.3533 8.81193 90.4 9.31859 90.4V91ZM25.0892 91.14C24.3159 91.14 23.7226 90.9267 23.3092 90.5C22.9092 90.0733 22.7092 89.54 22.7092 88.9C22.7092 88.3667 22.8292 87.92 23.0692 87.56C23.3226 87.1867 23.6492 86.8733 24.0492 86.62C24.4626 86.3667 24.9026 86.1533 25.3692 85.98C25.8492 85.8067 26.3159 85.66 26.7692 85.54C27.2226 85.42 27.6226 85.3067 27.9692 85.2V84.32C27.9692 83.4533 27.8159 82.84 27.5092 82.48C27.2159 82.1067 26.7692 81.92 26.1692 81.92C25.5959 81.92 25.2292 82.04 25.0692 82.28C24.9092 82.52 24.8292 82.94 24.8292 83.54C24.8292 83.8467 24.7492 84.08 24.5892 84.24C24.4426 84.3867 24.2292 84.46 23.9492 84.46C23.7492 84.46 23.5559 84.3867 23.3692 84.24C23.1959 84.08 23.1092 83.8333 23.1092 83.5C23.1092 83.1267 23.2492 82.7733 23.5292 82.44C23.8226 82.1067 24.2292 81.8333 24.7492 81.62C25.2826 81.4067 25.9092 81.3 26.6292 81.3C27.7226 81.3 28.4959 81.5533 28.9492 82.06C29.4026 82.5667 29.6292 83.34 29.6292 84.38V88.92C29.6292 89.3333 29.6759 89.6 29.7692 89.72C29.8626 89.84 30.0159 89.9 30.2292 89.9C30.4159 89.9 30.5826 89.8533 30.7292 89.76C30.8892 89.6667 31.0359 89.5467 31.1692 89.4L31.4692 89.72C31.1359 90.2 30.8159 90.5533 30.5092 90.78C30.2159 90.9933 29.8159 91.1 29.3092 91.1C28.8426 91.1 28.5359 90.9667 28.3892 90.7C28.2559 90.4333 28.1559 90.0533 28.0892 89.56L27.9692 89.32V85.86C27.3692 86.0067 26.8026 86.18 26.2692 86.38C25.7359 86.58 25.3026 86.84 24.9692 87.16C24.6359 87.48 24.4692 87.9 24.4692 88.42C24.4692 88.9133 24.6026 89.3067 24.8692 89.6C25.1359 89.8933 25.4826 90.04 25.9092 90.04C26.2559 90.04 26.6159 89.9533 26.9892 89.78C27.3759 89.6067 27.7492 89.36 28.1092 89.04L28.2692 89.76H28.0292C27.7226 90.0267 27.4226 90.2667 27.1292 90.48C26.8492 90.6933 26.5426 90.86 26.2092 90.98C25.8892 91.0867 25.5159 91.14 25.0892 91.14ZM36.6986 91H32.1986V90.44C32.6519 90.44 32.9719 90.4 33.1586 90.32C33.3586 90.2267 33.4786 90.0733 33.5186 89.86C33.5719 89.6467 33.5986 89.3533 33.5986 88.98V83.4C33.5986 82.9733 33.5253 82.7133 33.3786 82.62C33.2319 82.5133 33.0119 82.46 32.7186 82.46C32.5853 82.46 32.4653 82.4667 32.3586 82.48C32.2653 82.4933 32.2186 82.5 32.2186 82.5V81.92L34.7386 81.36H35.2586V88.98C35.2586 89.3667 35.2853 89.6667 35.3386 89.88C35.3919 90.0933 35.5186 90.24 35.7186 90.32C35.9319 90.4 36.2586 90.44 36.6986 90.44V91ZM34.4586 79.8C34.1253 79.8 33.8519 79.6867 33.6386 79.46C33.4253 79.2333 33.3186 78.9667 33.3186 78.66C33.3186 78.3533 33.4186 78.0933 33.6186 77.88C33.8319 77.6533 34.1119 77.54 34.4586 77.54C34.8053 77.54 35.0786 77.6533 35.2786 77.88C35.4919 78.0933 35.5986 78.3533 35.5986 78.66C35.5986 78.9667 35.4919 79.2333 35.2786 79.46C35.0786 79.6867 34.8053 79.8 34.4586 79.8ZM42.4617 91H37.8617V90.42C38.3017 90.42 38.6217 90.38 38.8217 90.3C39.0217 90.2067 39.1417 90.06 39.1817 89.86C39.2351 89.6467 39.2617 89.3533 39.2617 88.98V78.94C39.2617 78.5267 39.1817 78.28 39.0217 78.2C38.8751 78.12 38.6751 78.08 38.4217 78.08C38.2484 78.08 38.0951 78.0867 37.9617 78.1C37.8417 78.1133 37.7817 78.12 37.7817 78.12V77.58L40.4217 76.88H40.9217V88.98C40.9217 89.3667 40.9484 89.6667 41.0017 89.88C41.0684 90.08 41.2084 90.22 41.4217 90.3C41.6351 90.38 41.9817 90.42 42.4617 90.42V91ZM58.6328 91H53.8928V90.42C54.3728 90.42 54.7195 90.3733 54.9328 90.28C55.1461 90.1867 55.2795 90.0133 55.3328 89.76C55.3995 89.5067 55.4328 89.1467 55.4328 88.68V84.72C55.4328 83.8667 55.2795 83.3 54.9728 83.02C54.6795 82.7267 54.2995 82.58 53.8328 82.58C53.4595 82.58 53.1061 82.66 52.7728 82.82C52.4528 82.98 52.1595 83.1667 51.8928 83.38C51.6261 83.5933 51.3995 83.7933 51.2128 83.98L51.0528 82.98H51.3528C51.8995 82.5133 52.4261 82.12 52.9328 81.8C53.4395 81.4667 54.0328 81.3 54.7128 81.3C55.3128 81.3 55.7928 81.4733 56.1528 81.82C56.5261 82.1667 56.8061 82.6 56.9928 83.12C57.0195 83.16 57.0395 83.2067 57.0528 83.26C57.0661 83.3 57.0795 83.3467 57.0928 83.4V88.68C57.0928 89.1333 57.1195 89.4867 57.1728 89.74C57.2395 89.9933 57.3795 90.1733 57.5928 90.28C57.8061 90.3733 58.1528 90.42 58.6328 90.42V91ZM52.8328 91H48.2728V90.42C48.6995 90.42 49.0061 90.3867 49.1928 90.32C49.3928 90.24 49.5195 90.1 49.5728 89.9C49.6395 89.6867 49.6728 89.38 49.6728 88.98V83.38C49.6728 83.02 49.5995 82.78 49.4528 82.66C49.3195 82.54 49.1128 82.48 48.8328 82.48C48.6861 82.48 48.5595 82.4867 48.4528 82.5C48.3461 82.5133 48.2928 82.52 48.2928 82.52V81.94L50.7928 81.36H51.2728V83.2L51.3328 83.64V89.06C51.3328 89.4333 51.3728 89.72 51.4528 89.92C51.5328 90.1067 51.6795 90.24 51.8928 90.32C52.1061 90.3867 52.4195 90.42 52.8328 90.42V91ZM64.2128 91H59.6928V90.42C60.1461 90.42 60.4728 90.36 60.6728 90.24C60.8728 90.12 60.9928 89.9333 61.0328 89.68C61.0861 89.4133 61.1128 89.08 61.1128 88.68V84.84C61.1128 84.2267 61.0328 83.76 60.8728 83.44C60.7261 83.12 60.5195 82.9 60.2528 82.78C59.9995 82.6467 59.7128 82.58 59.3928 82.58C58.9528 82.58 58.5195 82.74 58.0928 83.06C57.6661 83.3667 57.2795 83.6667 56.9328 83.96L56.7128 82.96H57.0128C57.5595 82.4133 58.0928 82 58.6128 81.72C59.1328 81.44 59.6595 81.3 60.1928 81.3C60.9795 81.3 61.6061 81.5467 62.0728 82.04C62.5395 82.5333 62.7728 83.3867 62.7728 84.6V88.68C62.7728 89.0933 62.7928 89.4333 62.8328 89.7C62.8861 89.9533 63.0128 90.14 63.2128 90.26C63.4261 90.3667 63.7595 90.42 64.2128 90.42V91ZM69.6041 91.2C68.8041 91.2 68.0774 91.0133 67.4241 90.64C66.7841 90.2533 66.2774 89.6933 65.9041 88.96C65.5307 88.2133 65.3441 87.3067 65.3441 86.24C65.3441 85.12 65.5307 84.2 65.9041 83.48C66.2907 82.7467 66.8041 82.2 67.4441 81.84C68.0841 81.48 68.7907 81.3 69.5641 81.3C70.6574 81.3 71.5374 81.68 72.2041 82.44C72.8707 83.2 73.2307 84.28 73.2841 85.68H66.7841L66.7641 84.94H71.4041C71.3907 84.4467 71.3041 83.9867 71.1441 83.56C70.9841 83.12 70.7507 82.7667 70.4441 82.5C70.1374 82.2333 69.7441 82.1 69.2641 82.1C68.4907 82.1 67.9107 82.4067 67.5241 83.02C67.1374 83.62 66.9441 84.4733 66.9441 85.58C66.9441 86.5 67.0907 87.2667 67.3841 87.88C67.6774 88.4933 68.0641 88.9533 68.5441 89.26C69.0241 89.5533 69.5374 89.7 70.0841 89.7C70.6307 89.7 71.0707 89.6267 71.4041 89.48C71.7507 89.3333 72.0441 89.1467 72.2841 88.92C72.5241 88.68 72.7507 88.42 72.9641 88.14L73.3441 88.42C73.1707 88.7933 72.9707 89.1533 72.7441 89.5C72.5174 89.8333 72.2574 90.1267 71.9641 90.38C71.6841 90.6333 71.3507 90.8333 70.9641 90.98C70.5774 91.1267 70.1241 91.2 69.6041 91.2Z" fill="black"/>
</svg>
