<svg width="78" height="92" viewBox="0 0 78 92" fill="none" xmlns="http://www.w3.org/2000/svg">
<path d="M14.3596 61.2648C12.6867 61.2648 11.2551 60.6697 10.0647 59.4794C8.87444 58.289 8.27827 56.8564 8.27625 55.1815V18.6815C8.27625 17.0086 8.87241 15.5769 10.0647 14.3866C11.2571 13.1963 12.6887 12.6002 14.3596 12.5981H63.0262C64.6992 12.5981 66.1318 13.1943 67.3241 14.3866C68.5165 15.579 69.1116 17.0106 69.1096 18.6815V55.1815C69.1096 56.8544 68.5144 58.287 67.3241 59.4794C66.1338 60.6717 64.7012 61.2668 63.0262 61.2648H14.3596ZM38.6929 39.9731L14.3596 24.7648V55.1815H63.0262V24.7648L38.6929 39.9731ZM38.6929 33.8898L63.0262 18.6815H14.3596L38.6929 33.8898ZM14.3596 24.7648V18.6815V55.1815V24.7648Z" fill="black"/>
<path d="M19.7071 75H16.6521V74.61C17.0074 74.61 17.2718 74.5797 17.4451 74.519C17.6184 74.4497 17.7354 74.3067 17.7961 74.09C17.8568 73.8733 17.8871 73.544 17.8871 73.102V68.045C17.8871 67.7157 17.8568 67.4687 17.7961 67.304C17.7354 67.1307 17.6184 67.0137 17.4451 66.953C17.2804 66.8837 17.0248 66.849 16.6781 66.849V66.459H19.3301L22.0731 72.998H22.1251L24.8551 66.459H27.3251V66.849C27.0218 66.849 26.7878 66.8837 26.6231 66.953C26.4584 67.0137 26.3458 67.1307 26.2851 67.304C26.2244 67.4687 26.1941 67.7113 26.1941 68.032V73.453C26.1941 73.765 26.2244 74.0077 26.2851 74.181C26.3458 74.3457 26.4584 74.4583 26.6231 74.519C26.7878 74.5797 27.0261 74.61 27.3381 74.61V75H23.8801V74.61C24.2181 74.61 24.4694 74.5797 24.6341 74.519C24.7988 74.4583 24.9071 74.3457 24.9591 74.181C25.0111 74.0077 25.0371 73.765 25.0371 73.453V67.85H24.9851L21.9561 75H21.6441L18.5761 67.863H18.5241V73.102C18.5241 73.544 18.5544 73.8733 18.6151 74.09C18.6758 74.3067 18.7884 74.4497 18.9531 74.519C19.1264 74.5797 19.3778 74.61 19.7071 74.61V75ZM29.958 75.091C29.4553 75.091 29.0697 74.9523 28.801 74.675C28.541 74.3977 28.411 74.051 28.411 73.635C28.411 73.2883 28.489 72.998 28.645 72.764C28.8097 72.5213 29.022 72.3177 29.282 72.153C29.5507 71.9883 29.8367 71.8497 30.14 71.737C30.452 71.6243 30.7553 71.529 31.05 71.451C31.3447 71.373 31.6047 71.2993 31.83 71.23V70.658C31.83 70.0947 31.7303 69.696 31.531 69.462C31.3403 69.2193 31.05 69.098 30.66 69.098C30.2873 69.098 30.049 69.176 29.945 69.332C29.841 69.488 29.789 69.761 29.789 70.151C29.789 70.3503 29.737 70.502 29.633 70.606C29.5377 70.7013 29.399 70.749 29.217 70.749C29.087 70.749 28.9613 70.7013 28.84 70.606C28.7273 70.502 28.671 70.3417 28.671 70.125C28.671 69.8823 28.762 69.6527 28.944 69.436C29.1347 69.2193 29.399 69.0417 29.737 68.903C30.0837 68.7643 30.491 68.695 30.959 68.695C31.6697 68.695 32.1723 68.8597 32.467 69.189C32.7617 69.5183 32.909 70.021 32.909 70.697V73.648C32.909 73.9167 32.9393 74.09 33 74.168C33.0607 74.246 33.1603 74.285 33.299 74.285C33.4203 74.285 33.5287 74.2547 33.624 74.194C33.728 74.1333 33.8233 74.0553 33.91 73.96L34.105 74.168C33.8883 74.48 33.6803 74.7097 33.481 74.857C33.2903 74.9957 33.0303 75.065 32.701 75.065C32.3977 75.065 32.1983 74.9783 32.103 74.805C32.0163 74.6317 31.9513 74.3847 31.908 74.064L31.83 73.908V71.659C31.44 71.7543 31.0717 71.867 30.725 71.997C30.3783 72.127 30.0967 72.296 29.88 72.504C29.6633 72.712 29.555 72.985 29.555 73.323C29.555 73.6437 29.6417 73.8993 29.815 74.09C29.9883 74.2807 30.2137 74.376 30.491 74.376C30.7163 74.376 30.9503 74.3197 31.193 74.207C31.4443 74.0943 31.687 73.934 31.921 73.726L32.025 74.194H31.869C31.6697 74.3673 31.4747 74.5233 31.284 74.662C31.102 74.8007 30.9027 74.909 30.686 74.987C30.478 75.0563 30.2353 75.091 29.958 75.091ZM37.5041 75H34.5791V74.636C34.8738 74.636 35.0818 74.61 35.2031 74.558C35.3331 74.4973 35.4111 74.3977 35.4371 74.259C35.4718 74.1203 35.4891 73.9297 35.4891 73.687V70.06C35.4891 69.7827 35.4414 69.6137 35.3461 69.553C35.2508 69.4837 35.1078 69.449 34.9171 69.449C34.8304 69.449 34.7524 69.4533 34.6831 69.462C34.6224 69.4707 34.5921 69.475 34.5921 69.475V69.098L36.2301 68.734H36.5681V73.687C36.5681 73.9383 36.5854 74.1333 36.6201 74.272C36.6548 74.4107 36.7371 74.506 36.8671 74.558C37.0058 74.61 37.2181 74.636 37.5041 74.636V75ZM36.0481 67.72C35.8314 67.72 35.6538 67.6463 35.5151 67.499C35.3764 67.3517 35.3071 67.1783 35.3071 66.979C35.3071 66.7797 35.3721 66.6107 35.5021 66.472C35.6408 66.3247 35.8228 66.251 36.0481 66.251C36.2734 66.251 36.4511 66.3247 36.5811 66.472C36.7198 66.6107 36.7891 66.7797 36.7891 66.979C36.7891 67.1783 36.7198 67.3517 36.5811 67.499C36.4511 67.6463 36.2734 67.72 36.0481 67.72ZM41.2501 75H38.2601V74.623C38.5461 74.623 38.7541 74.597 38.8841 74.545C39.0141 74.4843 39.0921 74.389 39.1181 74.259C39.1528 74.1203 39.1701 73.9297 39.1701 73.687V67.161C39.1701 66.8923 39.1181 66.732 39.0141 66.68C38.9188 66.628 38.7888 66.602 38.6241 66.602C38.5115 66.602 38.4118 66.6063 38.3251 66.615C38.2471 66.6237 38.2081 66.628 38.2081 66.628V66.277L39.9241 65.822H40.2491V73.687C40.2491 73.9383 40.2665 74.1333 40.3011 74.272C40.3445 74.402 40.4355 74.493 40.5741 74.545C40.7128 74.597 40.9381 74.623 41.2501 74.623V75ZM51.7613 75H48.6803V74.623C48.9923 74.623 49.2177 74.5927 49.3563 74.532C49.495 74.4713 49.5817 74.3587 49.6163 74.194C49.6597 74.0293 49.6813 73.7953 49.6813 73.492V70.918C49.6813 70.3633 49.5817 69.995 49.3823 69.813C49.1917 69.6223 48.9447 69.527 48.6413 69.527C48.3987 69.527 48.169 69.579 47.9523 69.683C47.7443 69.787 47.5537 69.9083 47.3803 70.047C47.207 70.1857 47.0597 70.3157 46.9383 70.437L46.8343 69.787H47.0293C47.3847 69.4837 47.727 69.228 48.0563 69.02C48.3857 68.8033 48.7713 68.695 49.2133 68.695C49.6033 68.695 49.9153 68.8077 50.1493 69.033C50.392 69.2583 50.574 69.54 50.6953 69.878C50.7127 69.904 50.7257 69.9343 50.7343 69.969C50.743 69.995 50.7517 70.0253 50.7603 70.06V73.492C50.7603 73.7867 50.7777 74.0163 50.8123 74.181C50.8557 74.3457 50.9467 74.4627 51.0853 74.532C51.224 74.5927 51.4493 74.623 51.7613 74.623V75ZM47.9913 75H45.0273V74.623C45.3047 74.623 45.504 74.6013 45.6253 74.558C45.7553 74.506 45.8377 74.415 45.8723 74.285C45.9157 74.1463 45.9373 73.947 45.9373 73.687V70.047C45.9373 69.813 45.8897 69.657 45.7943 69.579C45.7077 69.501 45.5733 69.462 45.3913 69.462C45.296 69.462 45.2137 69.4663 45.1443 69.475C45.075 69.4837 45.0403 69.488 45.0403 69.488V69.111L46.6653 68.734H46.9773V69.93L47.0163 70.216V73.739C47.0163 73.9817 47.0423 74.168 47.0943 74.298C47.1463 74.4193 47.2417 74.506 47.3803 74.558C47.519 74.6013 47.7227 74.623 47.9913 74.623V75ZM55.3883 75H52.4503V74.623C52.745 74.623 52.9573 74.584 53.0873 74.506C53.2173 74.428 53.2953 74.3067 53.3213 74.142C53.356 73.9687 53.3733 73.752 53.3733 73.492V70.996C53.3733 70.5973 53.3213 70.294 53.2173 70.086C53.122 69.878 52.9877 69.735 52.8143 69.657C52.6497 69.5703 52.4633 69.527 52.2553 69.527C51.9693 69.527 51.6877 69.631 51.4103 69.839C51.133 70.0383 50.8817 70.2333 50.6563 70.424L50.5133 69.774H50.7083C51.0637 69.4187 51.4103 69.15 51.7483 68.968C52.0863 68.786 52.4287 68.695 52.7753 68.695C53.2867 68.695 53.694 68.8553 53.9973 69.176C54.3007 69.4967 54.4523 70.0513 54.4523 70.84V73.492C54.4523 73.7607 54.4653 73.9817 54.4913 74.155C54.526 74.3197 54.6083 74.441 54.7383 74.519C54.877 74.5883 55.0937 74.623 55.3883 74.623V75ZM58.8926 75.13C58.3726 75.13 57.9003 75.0087 57.4756 74.766C57.0596 74.5147 56.7303 74.1507 56.4876 73.674C56.245 73.1887 56.1236 72.5993 56.1236 71.906C56.1236 71.178 56.245 70.58 56.4876 70.112C56.739 69.6353 57.0726 69.28 57.4886 69.046C57.9046 68.812 58.364 68.695 58.8666 68.695C59.5773 68.695 60.1493 68.942 60.5826 69.436C61.016 69.93 61.25 70.632 61.2846 71.542H57.0596L57.0466 71.061H60.0626C60.054 70.7403 59.9976 70.4413 59.8936 70.164C59.7896 69.878 59.638 69.6483 59.4386 69.475C59.2393 69.3017 58.9836 69.215 58.6716 69.215C58.169 69.215 57.792 69.4143 57.5406 69.813C57.2893 70.203 57.1636 70.7577 57.1636 71.477C57.1636 72.075 57.259 72.5733 57.4496 72.972C57.6403 73.3707 57.8916 73.6697 58.2036 73.869C58.5156 74.0597 58.8493 74.155 59.2046 74.155C59.56 74.155 59.846 74.1073 60.0626 74.012C60.288 73.9167 60.4786 73.7953 60.6346 73.648C60.7906 73.492 60.938 73.323 61.0766 73.141L61.3236 73.323C61.211 73.5657 61.081 73.7997 60.9336 74.025C60.7863 74.2417 60.6173 74.4323 60.4266 74.597C60.2446 74.7617 60.028 74.8917 59.7766 74.987C59.5253 75.0823 59.2306 75.13 58.8926 75.13Z" fill="black"/>
</svg>
