<svg width="75" height="75" viewBox="0 0 75 75" fill="none" xmlns="http://www.w3.org/2000/svg">
<path d="M12.604 62.487C10.8975 62.487 9.43711 61.8798 8.22288 60.6656C7.00865 59.4514 6.40051 57.99 6.39844 56.2814V19.0479C6.39844 17.3413 7.00658 15.881 8.22288 14.6667C9.43917 13.4525 10.8996 12.8444 12.604 12.8423H62.2487C63.9552 12.8423 65.4166 13.4504 66.6329 14.6667C67.8492 15.883 68.4563 17.3434 68.4543 19.0479V56.2814C68.4543 57.9879 67.8472 59.4493 66.6329 60.6656C65.4187 61.8819 63.9573 62.489 62.2487 62.487H12.604ZM37.4264 40.7674L12.604 25.2535V56.2814H62.2487V25.2535L37.4264 40.7674ZM37.4264 34.5618L62.2487 19.0479H12.604L37.4264 34.5618ZM12.604 25.2535V19.0479V56.2814V25.2535Z" fill="black"/>
</svg>
