<svg width="78" height="106" viewBox="0 0 78 106" fill="none" xmlns="http://www.w3.org/2000/svg">
<path d="M13.6042 91.22C12.2309 91.22 11.0776 90.9267 10.1442 90.34C9.21089 89.7533 8.50422 88.9467 8.02422 87.92C7.55755 86.8933 7.32422 85.7333 7.32422 84.44C7.32422 82.9867 7.60422 81.7533 8.16422 80.74C8.72422 79.7267 9.49755 78.9533 10.4842 78.42C11.4709 77.8867 12.6042 77.62 13.8842 77.62C14.5909 77.62 15.1576 77.68 15.5842 77.8C16.0109 77.92 16.3509 78.04 16.6042 78.16C16.8576 78.28 17.0642 78.34 17.2242 78.34C17.3842 78.34 17.5042 78.2733 17.5842 78.14C17.6776 77.9933 17.7842 77.82 17.9042 77.62H18.5042V82.2H17.8242C17.6109 80.8933 17.1576 79.9467 16.4642 79.36C15.7842 78.7733 14.9309 78.48 13.9042 78.48C12.4642 78.48 11.3509 78.9933 10.5642 80.02C9.79089 81.0467 9.40422 82.4533 9.40422 84.24C9.40422 85.5733 9.60422 86.66 10.0042 87.5C10.4176 88.34 10.9842 88.96 11.7042 89.36C12.4242 89.76 13.2509 89.96 14.1842 89.96C15.1042 89.96 15.9109 89.7933 16.6042 89.46C17.2976 89.1133 17.9242 88.6333 18.4842 88.02L18.9642 88.44C18.6042 88.9733 18.1709 89.4533 17.6642 89.88C17.1709 90.2933 16.5909 90.62 15.9242 90.86C15.2576 91.1 14.4842 91.22 13.6042 91.22ZM22.8627 91.14C22.0893 91.14 21.496 90.9267 21.0827 90.5C20.6827 90.0733 20.4827 89.54 20.4827 88.9C20.4827 88.3667 20.6027 87.92 20.8427 87.56C21.096 87.1867 21.4227 86.8733 21.8227 86.62C22.236 86.3667 22.676 86.1533 23.1427 85.98C23.6227 85.8067 24.0893 85.66 24.5427 85.54C24.996 85.42 25.396 85.3067 25.7427 85.2V84.32C25.7427 83.4533 25.5893 82.84 25.2827 82.48C24.9893 82.1067 24.5427 81.92 23.9427 81.92C23.3693 81.92 23.0027 82.04 22.8427 82.28C22.6827 82.52 22.6027 82.94 22.6027 83.54C22.6027 83.8467 22.5227 84.08 22.3627 84.24C22.216 84.3867 22.0027 84.46 21.7227 84.46C21.5227 84.46 21.3293 84.3867 21.1427 84.24C20.9693 84.08 20.8827 83.8333 20.8827 83.5C20.8827 83.1267 21.0227 82.7733 21.3027 82.44C21.596 82.1067 22.0027 81.8333 22.5227 81.62C23.056 81.4067 23.6827 81.3 24.4027 81.3C25.496 81.3 26.2693 81.5533 26.7227 82.06C27.176 82.5667 27.4027 83.34 27.4027 84.38V88.92C27.4027 89.3333 27.4493 89.6 27.5427 89.72C27.636 89.84 27.7893 89.9 28.0027 89.9C28.1893 89.9 28.356 89.8533 28.5027 89.76C28.6627 89.6667 28.8093 89.5467 28.9427 89.4L29.2427 89.72C28.9093 90.2 28.5893 90.5533 28.2827 90.78C27.9893 90.9933 27.5893 91.1 27.0827 91.1C26.616 91.1 26.3093 90.9667 26.1627 90.7C26.0293 90.4333 25.9293 90.0533 25.8627 89.56L25.7427 89.32V85.86C25.1427 86.0067 24.576 86.18 24.0427 86.38C23.5093 86.58 23.076 86.84 22.7427 87.16C22.4093 87.48 22.2427 87.9 22.2427 88.42C22.2427 88.9133 22.376 89.3067 22.6427 89.6C22.9093 89.8933 23.256 90.04 23.6827 90.04C24.0293 90.04 24.3893 89.9533 24.7627 89.78C25.1493 89.6067 25.5227 89.36 25.8827 89.04L26.0427 89.76H25.8027C25.496 90.0267 25.196 90.2667 24.9027 90.48C24.6227 90.6933 24.316 90.86 23.9827 90.98C23.6627 91.0867 23.2893 91.14 22.8627 91.14ZM34.532 91H29.932V90.42C30.372 90.42 30.692 90.38 30.892 90.3C31.092 90.2067 31.212 90.06 31.252 89.86C31.3054 89.6467 31.332 89.3533 31.332 88.98V78.94C31.332 78.5267 31.252 78.28 31.092 78.2C30.9454 78.12 30.7454 78.08 30.492 78.08C30.3187 78.08 30.1654 78.0867 30.032 78.1C29.912 78.1133 29.852 78.12 29.852 78.12V77.58L32.492 76.88H32.992V88.98C32.992 89.3667 33.0187 89.6667 33.072 89.88C33.1387 90.08 33.2787 90.22 33.492 90.3C33.7054 90.38 34.052 90.42 34.532 90.42V91ZM40.1961 91H35.5961V90.42C36.0361 90.42 36.3561 90.38 36.5561 90.3C36.7561 90.2067 36.8761 90.06 36.9161 89.86C36.9694 89.6467 36.9961 89.3533 36.9961 88.98V78.94C36.9961 78.5267 36.9161 78.28 36.7561 78.2C36.6094 78.12 36.4094 78.08 36.1561 78.08C35.9828 78.08 35.8294 78.0867 35.6961 78.1C35.5761 78.1133 35.5161 78.12 35.5161 78.12V77.58L38.1561 76.88H38.6561V88.98C38.6561 89.3667 38.6828 89.6667 38.7361 89.88C38.8028 90.08 38.9428 90.22 39.1561 90.3C39.3694 90.38 39.7161 90.42 40.1961 90.42V91ZM56.3672 91H51.6272V90.42C52.1072 90.42 52.4539 90.3733 52.6672 90.28C52.8805 90.1867 53.0139 90.0133 53.0672 89.76C53.1339 89.5067 53.1672 89.1467 53.1672 88.68V84.72C53.1672 83.8667 53.0139 83.3 52.7072 83.02C52.4139 82.7267 52.0339 82.58 51.5672 82.58C51.1939 82.58 50.8405 82.66 50.5072 82.82C50.1872 82.98 49.8939 83.1667 49.6272 83.38C49.3605 83.5933 49.1339 83.7933 48.9472 83.98L48.7872 82.98H49.0872C49.6339 82.5133 50.1605 82.12 50.6672 81.8C51.1739 81.4667 51.7672 81.3 52.4472 81.3C53.0472 81.3 53.5272 81.4733 53.8872 81.82C54.2605 82.1667 54.5405 82.6 54.7272 83.12C54.7539 83.16 54.7739 83.2067 54.7872 83.26C54.8005 83.3 54.8139 83.3467 54.8272 83.4V88.68C54.8272 89.1333 54.8539 89.4867 54.9072 89.74C54.9739 89.9933 55.1139 90.1733 55.3272 90.28C55.5405 90.3733 55.8872 90.42 56.3672 90.42V91ZM50.5672 91H46.0072V90.42C46.4339 90.42 46.7405 90.3867 46.9272 90.32C47.1272 90.24 47.2539 90.1 47.3072 89.9C47.3739 89.6867 47.4072 89.38 47.4072 88.98V83.38C47.4072 83.02 47.3339 82.78 47.1872 82.66C47.0539 82.54 46.8472 82.48 46.5672 82.48C46.4205 82.48 46.2939 82.4867 46.1872 82.5C46.0805 82.5133 46.0272 82.52 46.0272 82.52V81.94L48.5272 81.36H49.0072V83.2L49.0672 83.64V89.06C49.0672 89.4333 49.1072 89.72 49.1872 89.92C49.2672 90.1067 49.4139 90.24 49.6272 90.32C49.8405 90.3867 50.1539 90.42 50.5672 90.42V91ZM61.9472 91H57.4272V90.42C57.8805 90.42 58.2072 90.36 58.4072 90.24C58.6072 90.12 58.7272 89.9333 58.7672 89.68C58.8205 89.4133 58.8472 89.08 58.8472 88.68V84.84C58.8472 84.2267 58.7672 83.76 58.6072 83.44C58.4605 83.12 58.2539 82.9 57.9872 82.78C57.7339 82.6467 57.4472 82.58 57.1272 82.58C56.6872 82.58 56.2539 82.74 55.8272 83.06C55.4005 83.3667 55.0139 83.6667 54.6672 83.96L54.4472 82.96H54.7472C55.2939 82.4133 55.8272 82 56.3472 81.72C56.8672 81.44 57.3939 81.3 57.9272 81.3C58.7139 81.3 59.3405 81.5467 59.8072 82.04C60.2739 82.5333 60.5072 83.3867 60.5072 84.6V88.68C60.5072 89.0933 60.5272 89.4333 60.5672 89.7C60.6205 89.9533 60.7472 90.14 60.9472 90.26C61.1605 90.3667 61.4939 90.42 61.9472 90.42V91ZM67.3384 91.2C66.5384 91.2 65.8118 91.0133 65.1584 90.64C64.5184 90.2533 64.0118 89.6933 63.6384 88.96C63.2651 88.2133 63.0784 87.3067 63.0784 86.24C63.0784 85.12 63.2651 84.2 63.6384 83.48C64.0251 82.7467 64.5384 82.2 65.1784 81.84C65.8184 81.48 66.5251 81.3 67.2984 81.3C68.3918 81.3 69.2718 81.68 69.9384 82.44C70.6051 83.2 70.9651 84.28 71.0184 85.68H64.5184L64.4984 84.94H69.1384C69.1251 84.4467 69.0384 83.9867 68.8784 83.56C68.7184 83.12 68.4851 82.7667 68.1784 82.5C67.8718 82.2333 67.4784 82.1 66.9984 82.1C66.2251 82.1 65.6451 82.4067 65.2584 83.02C64.8718 83.62 64.6784 84.4733 64.6784 85.58C64.6784 86.5 64.8251 87.2667 65.1184 87.88C65.4118 88.4933 65.7984 88.9533 66.2784 89.26C66.7584 89.5533 67.2718 89.7 67.8184 89.7C68.3651 89.7 68.8051 89.6267 69.1384 89.48C69.4851 89.3333 69.7784 89.1467 70.0184 88.92C70.2584 88.68 70.4851 88.42 70.6984 88.14L71.0784 88.42C70.9051 88.7933 70.7051 89.1533 70.4784 89.5C70.2518 89.8333 69.9918 90.1267 69.6984 90.38C69.4184 90.6333 69.0851 90.8333 68.6984 90.98C68.3118 91.1267 67.8584 91.2 67.3384 91.2Z" fill="black"/>
<path d="M53.116 40.4757L51.7042 41.8813C51.7042 41.8813 48.3439 45.2199 39.1751 36.1039C30.0064 26.9879 33.3667 23.6493 33.3667 23.6493L34.2541 22.7619C36.4478 20.5837 36.6557 17.0838 34.7412 14.5271L30.8317 9.30506C28.4612 6.14021 23.8846 5.72133 21.1696 8.42076L16.2982 13.2611C14.9547 14.6015 14.0549 16.3329 14.1635 18.2566C14.4428 23.1807 16.6706 33.7706 29.0942 46.1259C42.2717 59.2259 54.6363 59.7471 59.6908 59.2755C61.2918 59.1266 62.6819 58.3137 63.802 57.1966L68.208 52.8155C71.1866 49.8585 70.3489 44.7855 66.5387 42.7159L60.6123 39.4921C58.1115 38.1362 55.0707 38.5334 53.116 40.4757Z" fill="black"/>
</svg>
