<svg width="76" height="75" viewBox="0 0 76 75" fill="none" xmlns="http://www.w3.org/2000/svg">
<path d="M52.116 40.4757L50.7042 41.8813C50.7042 41.8813 47.3439 45.2199 38.1751 36.1039C29.0064 26.9879 32.3667 23.6493 32.3667 23.6493L33.2541 22.7619C35.4478 20.5837 35.6557 17.0838 33.7412 14.5271L29.8317 9.30506C27.4612 6.14021 22.8846 5.72133 20.1696 8.42076L15.2982 13.2611C13.9547 14.6015 13.0549 16.3329 13.1635 18.2566C13.4428 23.1807 15.6706 33.7706 28.0942 46.1259C41.2717 59.2259 53.6363 59.7471 58.6908 59.2755C60.2918 59.1266 61.6819 58.3137 62.802 57.1966L67.208 52.8155C70.1866 49.8585 69.3489 44.7855 65.5387 42.7159L59.6123 39.4921C57.1115 38.1362 54.0707 38.5334 52.116 40.4757Z" fill="black"/>
</svg>
