<svg width="78" height="92" viewBox="0 0 78 92" fill="none" xmlns="http://www.w3.org/2000/svg">
<path d="M53.116 40.4757L51.7042 41.8813C51.7042 41.8813 48.3439 45.2199 39.1751 36.1039C30.0064 26.9879 33.3667 23.6493 33.3667 23.6493L34.2541 22.7619C36.4478 20.5837 36.6557 17.0838 34.7412 14.5271L30.8317 9.30506C28.4612 6.14021 23.8846 5.72133 21.1696 8.42076L16.2982 13.2611C14.9547 14.6015 14.0549 16.3329 14.1635 18.2566C14.4428 23.1807 16.6706 33.7706 29.0942 46.1259C42.2717 59.2259 54.6363 59.7471 59.6908 59.2755C61.2918 59.1266 62.6819 58.3137 63.802 57.1966L68.208 52.8155C71.1866 49.8585 70.3489 44.7855 66.5387 42.7159L60.6123 39.4921C58.1115 38.1362 55.0707 38.5334 53.116 40.4757Z" fill="black"/>
<path d="M21.223 75.154C20.2616 75.154 19.4543 74.9487 18.801 74.538C18.1476 74.1273 17.653 73.5627 17.317 72.844C16.9903 72.1253 16.827 71.3133 16.827 70.408C16.827 69.3907 17.023 68.5273 17.415 67.818C17.807 67.1087 18.3483 66.5673 19.039 66.194C19.7296 65.8207 20.523 65.634 21.419 65.634C21.9136 65.634 22.3103 65.676 22.609 65.76C22.9076 65.844 23.1456 65.928 23.323 66.012C23.5003 66.096 23.645 66.138 23.757 66.138C23.869 66.138 23.953 66.0913 24.009 65.998C24.0743 65.8953 24.149 65.774 24.233 65.634H24.653V68.84H24.177C24.0276 67.9253 23.7103 67.2627 23.225 66.852C22.749 66.4413 22.1516 66.236 21.433 66.236C20.425 66.236 19.6456 66.5953 19.095 67.314C18.5536 68.0327 18.283 69.0173 18.283 70.268C18.283 71.2013 18.423 71.962 18.703 72.55C18.9923 73.138 19.389 73.572 19.893 73.852C20.397 74.132 20.9756 74.272 21.629 74.272C22.273 74.272 22.8376 74.1553 23.323 73.922C23.8083 73.6793 24.247 73.3433 24.639 72.914L24.975 73.208C24.723 73.5813 24.4196 73.9173 24.065 74.216C23.7196 74.5053 23.3136 74.734 22.847 74.902C22.3803 75.07 21.839 75.154 21.223 75.154ZM27.7039 75.098C27.1625 75.098 26.7472 74.9487 26.4579 74.65C26.1779 74.3513 26.0379 73.978 26.0379 73.53C26.0379 73.1567 26.1219 72.844 26.2899 72.592C26.4672 72.3307 26.6959 72.1113 26.9759 71.934C27.2652 71.7567 27.5732 71.6073 27.8999 71.486C28.2359 71.3647 28.5625 71.262 28.8799 71.178C29.1972 71.094 29.4772 71.0147 29.7199 70.94V70.324C29.7199 69.7173 29.6125 69.288 29.3979 69.036C29.1925 68.7747 28.8799 68.644 28.4599 68.644C28.0585 68.644 27.8019 68.728 27.6899 68.896C27.5779 69.064 27.5219 69.358 27.5219 69.778C27.5219 69.9927 27.4659 70.156 27.3539 70.268C27.2512 70.3707 27.1019 70.422 26.9059 70.422C26.7659 70.422 26.6305 70.3707 26.4999 70.268C26.3785 70.156 26.3179 69.9833 26.3179 69.75C26.3179 69.4887 26.4159 69.2413 26.6119 69.008C26.8172 68.7747 27.1019 68.5833 27.4659 68.434C27.8392 68.2847 28.2779 68.21 28.7819 68.21C29.5472 68.21 30.0885 68.3873 30.4059 68.742C30.7232 69.0967 30.8819 69.638 30.8819 70.366V73.544C30.8819 73.8333 30.9145 74.02 30.9799 74.104C31.0452 74.188 31.1525 74.23 31.3019 74.23C31.4325 74.23 31.5492 74.1973 31.6519 74.132C31.7639 74.0667 31.8665 73.9827 31.9599 73.88L32.1699 74.104C31.9365 74.44 31.7125 74.6873 31.4979 74.846C31.2925 74.9953 31.0125 75.07 30.6579 75.07C30.3312 75.07 30.1165 74.9767 30.0139 74.79C29.9205 74.6033 29.8505 74.3373 29.8039 73.992L29.7199 73.824V71.402C29.2999 71.5047 28.9032 71.626 28.5299 71.766C28.1565 71.906 27.8532 72.088 27.6199 72.312C27.3865 72.536 27.2699 72.83 27.2699 73.194C27.2699 73.5393 27.3632 73.8147 27.5499 74.02C27.7365 74.2253 27.9792 74.328 28.2779 74.328C28.5205 74.328 28.7725 74.2673 29.0339 74.146C29.3045 74.0247 29.5659 73.852 29.8179 73.628L29.9299 74.132H29.7619C29.5472 74.3187 29.3372 74.4867 29.1319 74.636C28.9359 74.7853 28.7212 74.902 28.4879 74.986C28.2639 75.0607 28.0025 75.098 27.7039 75.098ZM35.8724 75H32.6524V74.594C32.9604 74.594 33.1844 74.566 33.3244 74.51C33.4644 74.4447 33.5484 74.342 33.5764 74.202C33.6138 74.0527 33.6324 73.8473 33.6324 73.586V66.558C33.6324 66.2687 33.5764 66.096 33.4644 66.04C33.3618 65.984 33.2218 65.956 33.0444 65.956C32.9231 65.956 32.8158 65.9607 32.7224 65.97C32.6384 65.9793 32.5964 65.984 32.5964 65.984V65.606L34.4444 65.116H34.7944V73.586C34.7944 73.8567 34.8131 74.0667 34.8504 74.216C34.8971 74.356 34.9951 74.454 35.1444 74.51C35.2938 74.566 35.5364 74.594 35.8724 74.594V75ZM39.8373 75H36.6173V74.594C36.9253 74.594 37.1493 74.566 37.2893 74.51C37.4293 74.4447 37.5133 74.342 37.5413 74.202C37.5786 74.0527 37.5973 73.8473 37.5973 73.586V66.558C37.5973 66.2687 37.5413 66.096 37.4293 66.04C37.3266 65.984 37.1866 65.956 37.0093 65.956C36.8879 65.956 36.7806 65.9607 36.6873 65.97C36.6033 65.9793 36.5613 65.984 36.5613 65.984V65.606L38.4093 65.116H38.7593V73.586C38.7593 73.8567 38.7779 74.0667 38.8153 74.216C38.8619 74.356 38.9599 74.454 39.1093 74.51C39.2586 74.566 39.5013 74.594 39.8373 74.594V75ZM51.157 75H47.839V74.594C48.175 74.594 48.4177 74.5613 48.567 74.496C48.7164 74.4307 48.8097 74.3093 48.847 74.132C48.8937 73.9547 48.917 73.7027 48.917 73.376V70.604C48.917 70.0067 48.8097 69.61 48.595 69.414C48.3897 69.2087 48.1237 69.106 47.797 69.106C47.5357 69.106 47.2884 69.162 47.055 69.274C46.831 69.386 46.6257 69.5167 46.439 69.666C46.2524 69.8153 46.0937 69.9553 45.963 70.086L45.851 69.386H46.061C46.4437 69.0593 46.8124 68.784 47.167 68.56C47.5217 68.3267 47.937 68.21 48.413 68.21C48.833 68.21 49.169 68.3313 49.421 68.574C49.6824 68.8167 49.8784 69.12 50.009 69.484C50.0277 69.512 50.0417 69.5447 50.051 69.582C50.0604 69.61 50.0697 69.6427 50.079 69.68V73.376C50.079 73.6933 50.0977 73.9407 50.135 74.118C50.1817 74.2953 50.2797 74.4213 50.429 74.496C50.5784 74.5613 50.821 74.594 51.157 74.594V75ZM47.097 75H43.905V74.594C44.2037 74.594 44.4184 74.5707 44.549 74.524C44.689 74.468 44.7777 74.37 44.815 74.23C44.8617 74.0807 44.885 73.866 44.885 73.586V69.666C44.885 69.414 44.8337 69.246 44.731 69.162C44.6377 69.078 44.493 69.036 44.297 69.036C44.1944 69.036 44.1057 69.0407 44.031 69.05C43.9564 69.0593 43.919 69.064 43.919 69.064V68.658L45.669 68.252H46.005V69.54L46.047 69.848V73.642C46.047 73.9033 46.075 74.104 46.131 74.244C46.187 74.3747 46.2897 74.468 46.439 74.524C46.5884 74.5707 46.8077 74.594 47.097 74.594V75ZM55.063 75H51.899V74.594C52.2164 74.594 52.445 74.552 52.585 74.468C52.725 74.384 52.809 74.2533 52.837 74.076C52.8744 73.8893 52.893 73.656 52.893 73.376V70.688C52.893 70.2587 52.837 69.932 52.725 69.708C52.6224 69.484 52.4777 69.33 52.291 69.246C52.1137 69.1527 51.913 69.106 51.689 69.106C51.381 69.106 51.0777 69.218 50.779 69.442C50.4804 69.6567 50.2097 69.8667 49.967 70.072L49.813 69.372H50.023C50.4057 68.9893 50.779 68.7 51.143 68.504C51.507 68.308 51.8757 68.21 52.249 68.21C52.7997 68.21 53.2384 68.3827 53.565 68.728C53.8917 69.0733 54.055 69.6707 54.055 70.52V73.376C54.055 73.6653 54.069 73.9033 54.097 74.09C54.1344 74.2673 54.223 74.398 54.363 74.482C54.5124 74.5567 54.7457 74.594 55.063 74.594V75ZM58.8369 75.14C58.2769 75.14 57.7682 75.0093 57.3109 74.748C56.8629 74.4773 56.5082 74.0853 56.2469 73.572C55.9856 73.0493 55.8549 72.4147 55.8549 71.668C55.8549 70.884 55.9856 70.24 56.2469 69.736C56.5176 69.2227 56.8769 68.84 57.3249 68.588C57.7729 68.336 58.2676 68.21 58.8089 68.21C59.5742 68.21 60.1902 68.476 60.6569 69.008C61.1236 69.54 61.3756 70.296 61.4129 71.276H56.8629L56.8489 70.758H60.0969C60.0876 70.4127 60.0269 70.0907 59.9149 69.792C59.8029 69.484 59.6396 69.2367 59.4249 69.05C59.2102 68.8633 58.9349 68.77 58.5989 68.77C58.0576 68.77 57.6516 68.9847 57.3809 69.414C57.1102 69.834 56.9749 70.4313 56.9749 71.206C56.9749 71.85 57.0776 72.3867 57.2829 72.816C57.4882 73.2453 57.7589 73.5673 58.0949 73.782C58.4309 73.9873 58.7902 74.09 59.1729 74.09C59.5556 74.09 59.8636 74.0387 60.0969 73.936C60.3396 73.8333 60.5449 73.7027 60.7129 73.544C60.8809 73.376 61.0396 73.194 61.1889 72.998L61.4549 73.194C61.3336 73.4553 61.1936 73.7073 61.0349 73.95C60.8762 74.1833 60.6942 74.3887 60.4889 74.566C60.2929 74.7433 60.0596 74.8833 59.7889 74.986C59.5182 75.0887 59.2009 75.14 58.8369 75.14Z" fill="black"/>
</svg>
