<svg width="154" height="154" viewBox="0 0 154 154" fill="none" xmlns="http://www.w3.org/2000/svg">
<path fill-rule="evenodd" clip-rule="evenodd" d="M2.18213 67.6825C2.18213 68.5232 2.42967 69.0781 2.56839 69.6174C3.47247 73.1249 5.41575 76.1349 7.72138 78.8806C11.0052 82.7935 15.0269 85.9434 19.1467 88.9055C22.7199 91.4743 26.3661 93.9856 29.9537 96.5352C30.5696 96.9729 31.152 97.4763 31.8205 98.0133C31.2453 98.3242 30.7669 98.598 30.2694 98.8504C25.535 101.252 20.98 103.944 16.7813 107.205C14.2508 109.171 11.8041 111.26 10.076 113.99C7.29565 118.381 6.31146 123.059 8.38389 128.055C8.989 129.514 9.91221 130.774 11.2145 131.706C11.6366 132.007 12.1102 132.306 12.6041 132.423C13.8693 132.721 15.1585 132.916 16.4392 133.151L20.0663 133.149C24.0772 132.791 27.7282 131.417 31.0276 129.14C36.1842 125.582 39.6582 120.81 41.1518 114.686C42.2377 110.235 42.2819 105.779 41.0023 101.349C40.8794 100.938 40.7381 100.534 40.579 100.136C40.4235 99.7377 40.2406 99.3502 40.0253 98.854L48.2481 94.1255L48.3713 94.2307C48.2218 94.7199 48.0627 95.2078 47.9276 95.7017C46.9506 99.2701 46.3012 102.901 46.5344 106.604C46.7832 110.551 47.8845 114.245 50.195 117.542C52.0629 120.209 56.5139 120.308 58.4991 117.631C59.2034 116.681 59.8863 115.687 60.3993 114.626C61.7399 111.858 62.9812 109.04 64.2619 106.242L64.4856 105.73C64.3935 107.055 64.2859 108.219 64.2368 109.384C64.1603 111.202 64.2667 113.011 64.8886 114.741C65.4207 116.222 66.326 117.328 68.0217 117.523C69.1817 117.655 70.1061 117.124 70.9588 116.451C72.2793 115.407 73.3742 114.105 74.1769 112.626C76.4502 108.451 78.7845 104.301 80.845 100.021C83.0741 95.3919 85.0234 90.6276 87.0934 85.9195L87.4354 85.0848C87.9245 87.0065 88.2654 88.8888 88.8932 90.6706C89.6227 92.7383 90.5255 94.7569 91.5086 96.7193C91.9737 97.6461 91.9199 98.2477 91.2754 99.025C88.5775 102.278 85.9262 105.57 83.2726 108.859C82.6854 109.584 82.1007 110.324 81.6116 111.116C81.3148 111.617 81.1197 112.171 81.0375 112.748C80.9552 113.278 81.0815 113.82 81.3898 114.259C81.6981 114.699 82.1646 115.002 82.6914 115.105C83.7547 115.333 84.8449 115.411 85.9298 115.335C89.6334 115.063 92.9962 113.763 95.9691 111.56C99.821 108.707 101.058 104.813 100.125 100.198C99.8724 98.946 99.4264 97.7287 98.9923 96.522C98.7974 95.9779 98.7842 95.5964 99.1394 95.0894C102.219 90.6922 104.85 86.0271 107.296 81.2544C107.393 81.0666 107.492 80.8789 107.662 80.678C108.455 84.8037 109.649 88.78 111.787 92.3879C110.696 93.4391 109.616 94.3922 108.639 95.4422C106.488 97.755 104.622 100.266 103.649 103.329C103.23 104.649 102.909 105.991 103.095 107.401C103.385 109.59 105.179 111.014 107.332 110.515C111.941 109.448 115.92 107.276 118.827 103.429C120.783 100.839 120.962 97.9499 120.142 94.9231C119.918 94.1004 119.651 93.2908 119.364 92.3472C120.501 91.9945 121.61 91.5711 122.757 91.3092C128.711 89.9507 134.6 90.1875 140.338 92.3377C143.688 93.5933 146.394 95.6945 147.999 98.9999C149.959 103.041 148.875 106.875 145.067 109.429C144.711 109.667 144.305 109.855 144.011 110.152C143.916 110.262 143.846 110.389 143.804 110.527C143.762 110.665 143.749 110.81 143.766 110.954C143.791 111.101 144.179 111.285 144.403 111.283C145.655 111.273 146.67 110.617 147.645 109.942C150.087 108.252 151.869 105.979 152.253 102.986L152.328 102.761L152.236 100.812C152.199 100.699 152.263 100.588 152.255 100.503C151.736 96.1441 149.408 92.7634 146.021 90.1134C142.098 87.046 137.467 85.7831 132.569 85.5834C128.596 85.4124 124.628 86.0231 120.891 87.3808C119.818 87.7695 118.755 88.2299 117.676 88.664C117.532 88.4021 117.376 88.151 117.248 87.8915C116.141 85.6241 114.799 83.4572 114.503 80.8574C114.292 79.0109 114.034 77.1669 114.473 75.3408C114.895 73.5841 115.445 71.8573 115.963 70.1245C116.229 69.2324 116.042 68.7325 115.19 68.3307C114.893 68.1849 114.576 68.0811 114.25 68.0221C112.158 67.7184 110.094 67.8918 108.067 68.4814C107.349 68.6906 106.828 69.0924 106.669 69.8865C106.578 70.3421 106.392 70.7786 106.263 71.2283C105.733 73.0974 105.358 75.0024 104.502 76.7831C102.356 81.2496 99.9071 85.5476 97.4006 89.8144C97.1291 90.2748 96.8433 90.7268 96.5013 91.2853C95.6211 89.4437 94.6824 87.791 94.3978 85.8537C94.0761 83.6629 93.8226 81.4756 94.3679 79.3015C94.7733 77.68 95.303 76.0883 95.791 74.4882C96.0218 73.7276 95.9153 73.3282 95.2265 72.9276C94.8785 72.7255 94.4851 72.5461 94.0928 72.4875C91.9469 72.1605 89.7543 72.3399 87.6901 73.0113C87.0408 73.2218 86.7 73.6415 86.5015 74.3112C85.9179 76.2868 85.4204 78.3102 84.6012 80.1889C81.2839 87.7946 77.8709 95.3608 74.4615 102.926C73.7499 104.506 72.9164 106.03 72.114 107.568C71.9107 107.958 71.6141 108.301 71.3606 108.667C71.1573 108.427 71.0784 108.262 71.0796 108.097C71.0855 107.125 70.9695 106.124 71.1549 105.184C71.724 102.341 72.3532 99.5104 73.042 96.6942C73.604 94.3671 74.2582 92.0614 74.8812 89.7498C75.0905 88.9761 75.0941 88.2526 74.538 87.6021C73.604 86.5126 71.6524 86.2734 70.4948 87.1129L69.983 87.4023L70.0822 86.5772C70.3262 84.8085 70.3752 83.0458 69.8897 81.3034C69.2846 79.1317 67.7347 77.882 65.4817 77.9514C64.4317 77.9837 63.3292 78.1631 62.3569 78.5458C58.2683 80.1482 55.1243 82.986 52.448 86.4002C52.1997 86.717 51.8922 86.9827 51.5427 87.1823C48.0831 89.1005 44.6127 90.9947 41.1434 92.8961L37.282 95.0116C36.2464 94.0239 35.3052 92.999 34.2373 92.1296C30.9762 89.47 27.6625 86.8762 24.3786 84.2465C21.4679 81.9157 18.648 79.4881 16.4907 76.4016C14.8858 74.1055 13.8514 71.593 13.7521 68.754C13.6266 65.1365 14.6526 61.8311 16.4943 58.7542C18.8501 54.8174 22.0634 51.6579 25.596 48.7962C29.3331 45.7707 33.3751 43.2019 37.5642 40.8568C43.4252 37.5766 49.4535 34.673 55.9172 32.756C62.5447 30.79 69.269 29.6647 76.2051 30.4492C78.9316 30.7578 81.5793 31.382 84.0105 32.7154C85.8724 33.7355 87.3996 35.0712 88.1099 37.1592C88.8107 39.2137 88.7892 41.2957 88.3036 43.3825C87.317 47.6087 85.003 51.0923 82.0911 54.2051C77.3148 59.3079 71.4886 62.7819 64.9292 65.0767C61.1577 66.3977 57.2338 67.2347 53.2516 67.5677C49.9881 67.8416 46.7927 67.5522 43.7026 66.4173C41.6565 65.6651 39.8746 64.5147 38.442 62.8452C38.1861 62.5463 37.8584 62.2222 37.3813 62.502C36.9137 62.7771 36.8312 63.2219 36.9878 63.6728C37.2497 64.4214 37.4913 65.2011 37.8991 65.8708C38.9239 67.551 40.4188 68.7696 42.0643 69.8147C45.2249 71.825 48.7575 72.5007 52.4205 72.6573C57.9789 72.8977 63.4021 72.0678 68.7488 70.5765C76.382 68.4479 83.0191 64.6881 88.3419 58.7566C92.7738 53.8176 95.9392 48.2437 96.6173 41.5134C96.9485 38.2283 96.5958 35.0103 95.0579 32.0134C93.3897 28.7666 90.7372 26.3522 87.5658 24.6887C82.9473 22.2671 77.963 20.8572 72.8184 20.8572H67.6642C61.4337 20.8572 55.4101 22.6426 49.5552 24.7724C45.1233 26.3857 40.7775 28.2895 36.5585 30.3966C27.3707 34.9875 18.8142 40.5232 11.7861 48.1349C8.28463 51.927 5.32008 56.1113 3.61478 61.0383C3.10097 62.5096 2.65759 64.0045 2.28617 65.518M35.5779 108.585C35.1797 113.917 32.7628 118.24 28.8129 121.742C26.591 123.71 24.0426 125.112 21.0744 125.604C19.9981 125.782 18.8968 125.826 17.8528 125.379C16.3639 124.743 16.0303 123.422 16.0016 122.014C15.9573 119.771 16.743 117.743 17.8205 115.813C19.2268 113.296 21.2885 111.378 23.4901 109.587C26.9581 106.763 30.7203 104.374 34.5734 102.119L34.864 101.999C35.4595 104.199 35.7429 106.372 35.5779 108.585ZM65.6635 85.41C65.3825 87.1129 65.0309 88.8171 64.5334 90.4673C62.8137 96.18 60.605 101.716 58.2168 107.177C57.7756 108.188 57.1334 109.11 56.5749 110.068C56.4798 110.215 56.366 110.349 56.2365 110.467C55.5453 111.15 54.8899 111.114 54.5407 110.221C54.1341 109.183 53.8842 108.072 53.6689 106.973C53.5243 106.235 53.5589 105.46 53.5135 104.704C53.5601 99.3299 55.1997 94.446 57.9812 89.8993C59.1281 88.0242 60.3766 86.2376 62.284 85.0513C62.8776 84.6828 63.5195 84.3986 64.1914 84.207C65.2079 83.9212 65.8321 84.3912 65.6635 85.41ZM86.1893 111.561L93.5666 102.947C93.874 106.146 88.4364 112.532 86.1893 111.561ZM109.751 105.765C109.23 106.064 108.662 106.279 108.127 106.555C107.638 106.809 107.477 106.553 107.463 106.132C107.456 105.841 107.493 105.55 107.574 105.27C108.57 101.756 110.403 98.7571 113.131 96.3175L113.322 96.2195C114.62 99.8489 113.12 103.835 109.751 105.765Z" fill="#CB6699"/>
</svg>
