<svg width="51" height="78" viewBox="0 0 51 78" fill="none" xmlns="http://www.w3.org/2000/svg">
<g clip-path="url(#clip0_230_148)">
<path d="M35.2257 32.9363C35.1826 31.7412 34.7212 30.6091 33.9357 29.7713C33.1502 28.9336 32.0999 28.4534 30.9995 28.429H24.9751C23.8747 28.4534 22.8244 28.9336 22.0389 29.7713C21.2534 30.6091 20.792 31.7412 20.749 32.9363L19.9537 54.1469C19.9475 54.3133 19.9063 54.4761 19.8333 54.6226L22.7782 52.3378L22.0613 76.4867C22.0282 76.8299 22.1181 77.1738 22.3123 77.4468C22.3498 77.4995 22.4044 77.5346 22.4649 77.545C22.6798 77.545 23.1236 77.0791 23.2029 76.3165L26.1137 51.7639C26.1976 51.3133 26.3335 50.8759 26.5184 50.4623L27.2453 49.584H28.8769L29.8649 50.2637C30.0448 50.7316 30.1638 51.2244 30.2184 51.7279L32.7707 76.3143C32.85 77.0759 33.2948 77.5417 33.5097 77.5417C33.5702 77.5313 33.6248 77.4962 33.6623 77.4436C33.8551 77.173 34.1543 76.8053 34.1212 76.4616L33.1844 52.3378L36.6986 54.9892" fill="black"/>
<path d="M28.0675 23.4788C29.7139 23.4788 31.0486 22.0285 31.0486 20.2394C31.0486 18.4503 29.7139 17 28.0675 17C26.4211 17 25.0864 18.4503 25.0864 20.2394C25.0864 22.0285 26.4211 23.4788 28.0675 23.4788Z" fill="black"/>
<path d="M28.0678 23.4788C29.7142 23.4788 31.0488 22.0285 31.0488 20.2394C31.0488 18.4503 29.7142 17 28.0678 17C26.4213 17 25.0867 18.4503 25.0867 20.2394C25.0867 22.0285 26.4213 23.4788 28.0678 23.4788Z" stroke="black" stroke-width="2" stroke-miterlimit="10"/>
<path d="M33.054 34.3569L34.9618 75.8179C35.017 77.0181 34.3844 78 33.5561 78C33.0804 77.9126 32.6474 77.6486 32.3308 77.2531C32.0142 76.8576 31.8337 76.355 31.82 75.831L29.2677 51.7945C29.1381 50.6009 28.5859 49.6254 28.0337 49.6254C27.4814 49.6254 26.9262 50.6009 26.7997 51.7934L24.2503 75.831C24.2364 76.3548 24.0558 76.8571 23.7392 77.2524C23.4227 77.6477 22.9898 77.9116 22.5143 77.9989C21.6859 77.9989 21.0534 77.017 21.1086 75.8168L23.0163 34.3558" stroke="black" stroke-width="2" stroke-linecap="round" stroke-linejoin="round"/>
<path d="M19 53.9963L19.7952 33.2658C19.8651 31.8044 20.4447 30.4268 21.4162 29.4134C22.3876 28.3999 23.6779 27.8267 25.0244 27.8104H31.0489" stroke="black" stroke-width="2" stroke-linecap="round" stroke-linejoin="round"/>
<path d="M30.9756 27.8093C32.3222 27.8257 33.6124 28.3989 34.5839 29.4123C35.5553 30.4258 36.1349 31.8033 36.2048 33.2647L37 53.9952" stroke="black" stroke-width="2" stroke-linecap="round" stroke-linejoin="round"/>
</g>
<defs>
<clipPath id="clip0_230_148">
<rect width="51" height="78" fill="white"/>
</clipPath>
</defs>
</svg>
