<svg width="52" height="79" viewBox="0 0 52 79" fill="none" xmlns="http://www.w3.org/2000/svg">
<path d="M25.094 22.0265C26.7509 22.0265 28.094 20.6818 28.094 19.0229C28.094 17.3641 26.7509 16.0193 25.094 16.0193C23.4371 16.0193 22.094 17.3641 22.094 19.0229C22.094 20.6818 23.4371 22.0265 25.094 22.0265Z" stroke="black" stroke-width="2" stroke-miterlimit="10"/>
<path d="M4 22.9336L8.696 27.5392C9.482 28.3101 11.008 28.7647 12.086 28.5484L18.164 27.3309C19.4724 27.0832 20.7924 26.9011 22.119 26.7853L31.131 26.0904C32.228 26.0063 34.011 26.0934 35.095 26.2857L50.125 28.9409M20.125 30.9433L21.125 31.9445C21.675 32.4951 22.301 33.8288 22.518 34.9081L23.732 40.9954C23.949 42.0737 23.77 43.7858 23.338 44.798L18.912 55.1344C18.479 56.1456 18.41 57.8287 18.758 58.8739L21.492 67.0888C21.84 68.1351 22.8 68.9891 23.625 68.9891C24.45 68.9891 24.964 68.1021 24.768 67.0188L23.482 59.9462C23.286 58.8629 23.562 57.1879 24.096 56.2257L27.153 50.7151C27.688 49.7539 28.575 48.965 29.125 48.965C29.675 48.965 30.125 49.8661 30.125 50.9674V59.9783C30.125 61.0796 30.091 62.8818 30.05 63.9821L29.6 75.9986C29.56 77.0999 30.268 78 31.176 78C32.083 78 32.946 77.1069 33.094 76.0156L34.856 62.9639C35.004 61.8726 35.189 60.0804 35.268 58.9821L35.982 48.96C36.06 47.8617 35.969 46.0745 35.777 44.9902L33.125 29.9421" stroke="black" stroke-width="2" stroke-miterlimit="10" stroke-linecap="round" stroke-linejoin="round"/>
<path d="M25.2715 21.9315C26.9091 21.9315 28.2367 20.608 28.2367 18.9754C28.2367 17.3428 26.9091 16.0193 25.2715 16.0193C23.6339 16.0193 22.3064 17.3428 22.3064 18.9754C22.3064 20.608 23.6339 21.9315 25.2715 21.9315Z" fill="black"/>
<path d="M33.2092 28.7364L36.1743 46.473L35.186 60.2681L32.9127 77.0193H29.6511L30.2441 61.2535V48.4437H28.2673L23.3254 57.312L25.3022 68.151H22.3371L18.3836 56.3266L24.3138 42.5315L22.3371 32.6779L19.6457 31.3545C19.6457 31.3545 18.0673 29.6853 17.8498 29.7218C16.728 29.909 11.8395 30.8786 11.1575 30.8303C8.53141 30.6461 7.20402 28.7364 3.55889 24.796C2.11289 23.2322 3.92953 22.2084 3.92953 22.2084L10.4765 28.7364L20.3603 26.7657L26.2906 25.7803H32.2208L39.1395 26.7657L51 28.7364C51 28.7364 50.9842 30.9515 49.0232 30.7072L33.2092 28.7364Z" fill="black"/>
<path d="M8.2424 15.6913L9.35847 17.376L7.35848 17.3713C7.15004 20.9885 6.67496 24.5918 5.99997 28.1545L4.66714 27.9378C5.34197 24.4418 5.80353 20.9186 6.02515 17.3682L4.02516 17.3635L5.14908 15.6841C2.21871 14.4091 0.0427403 9.82515 0.050094 6.67469C0.054226 4.90445 0.760566 3.20836 2.01373 1.95953C3.26689 0.710701 4.96422 0.011434 6.73232 0.0155611C7.6078 0.0176046 8.4743 0.192274 9.28235 0.529597C10.0904 0.866919 10.8242 1.36029 11.4418 1.98154C12.0594 2.60278 12.5487 3.33974 12.8819 4.15034C13.215 4.96093 13.3854 5.82928 13.3834 6.70581C13.376 9.85627 11.1787 14.43 8.2424 15.6913Z" fill="black"/>
</svg>
