<svg width="52" height="79" viewBox="0 0 52 79" fill="none" xmlns="http://www.w3.org/2000/svg">
<path d="M25.094 22C26.7509 22 28.094 20.6569 28.094 19C28.094 17.3431 26.7509 16 25.094 16C23.4371 16 22.094 17.3431 22.094 19C22.094 20.6569 23.4371 22 25.094 22Z" stroke="black" stroke-width="2" stroke-miterlimit="10"/>
<path d="M4 22.906L8.696 27.506C9.482 28.276 11.008 28.73 12.086 28.514L18.164 27.298C19.4724 27.0506 20.7924 26.8687 22.119 26.753L31.131 26.059C32.228 25.975 34.011 26.062 35.095 26.254L50.125 28.906M20.125 30.906L21.125 31.906C21.675 32.456 22.301 33.788 22.518 34.866L23.732 40.946C23.949 42.023 23.77 43.733 23.338 44.744L18.912 55.068C18.479 56.078 18.41 57.759 18.758 58.803L21.492 67.008C21.84 68.053 22.8 68.906 23.625 68.906C24.45 68.906 24.964 68.02 24.768 66.938L23.482 59.874C23.286 58.792 23.562 57.119 24.096 56.158L27.153 50.654C27.688 49.694 28.575 48.906 29.125 48.906C29.675 48.906 30.125 49.806 30.125 50.906V59.906C30.125 61.006 30.091 62.806 30.05 63.905L29.6 75.907C29.56 77.007 30.268 77.906 31.176 77.906C32.083 77.906 32.946 77.014 33.094 75.924L34.856 62.888C35.004 61.798 35.189 60.008 35.268 58.911L35.982 48.901C36.06 47.804 35.969 46.019 35.777 44.936L33.125 29.906" stroke="black" stroke-width="2" stroke-miterlimit="10" stroke-linecap="round" stroke-linejoin="round"/>
<path d="M25.5334 22C27.1903 22 28.5334 20.6569 28.5334 19C28.5334 17.3431 27.1903 16 25.5334 16C23.8766 16 22.5334 17.3431 22.5334 19C22.5334 20.6569 23.8766 22 25.5334 22Z" fill="black"/>
<path d="M33.5645 28.906L36.5645 46.906L35.5645 60.906L33.2645 77.906H29.9645L30.5645 61.906V48.906H28.5645L23.5645 57.906L25.5645 68.906H22.5645L18.5645 56.906L24.5645 42.906L22.5645 32.906L19.8415 31.563C19.8415 31.563 18.2445 29.869 18.0245 29.906C16.8895 30.096 11.9435 31.08 11.2535 31.031C8.59646 30.844 7.25346 28.906 3.56546 24.907C2.10246 23.32 3.94046 22.281 3.94046 22.281L10.5645 28.906L20.5645 26.906L26.5645 25.906H32.5645L39.5645 26.906L51.5645 28.906C51.5645 28.906 51.5485 31.154 49.5645 30.906L33.5645 28.906Z" fill="black"/>
<path d="M8.24245 15.6725L9.35852 17.3551L7.35853 17.3504C7.15009 20.9633 6.67503 24.5622 6.00005 28.1206L4.66722 27.9042C5.34204 24.4124 5.80359 20.8935 6.0252 17.3473L4.0252 17.3426L5.14912 15.6652C2.21875 14.3917 0.0427679 9.81331 0.0501128 6.66665C0.0542398 4.89854 0.760575 3.20449 2.01373 1.95717C3.26689 0.709853 4.96422 0.011434 6.73232 0.0155611C7.6078 0.0176046 8.4743 0.192066 9.28235 0.528985C10.0904 0.865903 10.8242 1.35868 11.4418 1.97918C12.0594 2.59968 12.5488 3.33575 12.8819 4.14537C13.215 4.95499 13.3855 5.82229 13.3834 6.69777C13.3761 9.84443 11.1787 14.4126 8.24245 15.6725Z" fill="black"/>
</svg>
